<?xml version="1.0" encoding="utf-8" standalone="no"?>
<!DOCTYPE svg PUBLIC "-//W3C//DTD SVG 1.1//EN"
  "http://www.w3.org/Graphics/SVG/1.1/DTD/svg11.dtd">
<svg xmlns:xlink="http://www.w3.org/1999/xlink" width="460.8pt" height="345.6pt" viewBox="0 0 460.8 345.6" xmlns="http://www.w3.org/2000/svg" version="1.1">
 <metadata>
  <rdf:RDF xmlns:dc="http://purl.org/dc/elements/1.1/" xmlns:cc="http://creativecommons.org/ns#" xmlns:rdf="http://www.w3.org/1999/02/22-rdf-syntax-ns#">
   <cc:Work>
    <dc:type rdf:resource="http://purl.org/dc/dcmitype/StillImage"/>
    <dc:format>image/svg+xml</dc:format>
    <dc:creator>
     <cc:Agent>
      <dc:title>Matplotlib v3.5.1, https://matplotlib.org/</dc:title>
     </cc:Agent>
    </dc:creator>
   </cc:Work>
  </rdf:RDF>
 </metadata>
 <defs>
  <style type="text/css">*{stroke-linejoin: round; stroke-linecap: butt}</style>
 </defs>
 <g id="figure_1">
  <g id="patch_1">
   <path d="M 0 345.6 
L 460.8 345.6 
L 460.8 0 
L 0 0 
z
" style="fill: #ffffff"/>
  </g>
  <g id="axes_1">
   <g id="patch_2">
    <path d="M 57.6 307.584 
L 414.72 307.584 
L 414.72 41.472 
L 57.6 41.472 
z
" style="fill: #ffffff"/>
   </g>
   <g id="matplotlib.axis_1">
    <g id="xtick_1">
     <g id="line2d_1">
      <defs>
       <path id="me54a3d5563" d="M 0 0 
L 0 3.5 
" style="stroke: #000000; stroke-width: 0.8"/>
      </defs>
      <g>
       <use xlink:href="#me54a3d5563" x="73.832727" y="307.584" style="stroke: #000000; stroke-width: 0.8"/>
      </g>
     </g>
     <g id="text_1">
      <!-- 0.00 -->
      <g transform="translate(62.699915 322.182437)scale(0.1 -0.1)">
       <defs>
        <path id="DejaVuSans-30" d="M 2034 4250 
Q 1547 4250 1301 3770 
Q 1056 3291 1056 2328 
Q 1056 1369 1301 889 
Q 1547 409 2034 409 
Q 2525 409 2770 889 
Q 3016 1369 3016 2328 
Q 3016 3291 2770 3770 
Q 2525 4250 2034 4250 
z
M 2034 4750 
Q 2819 4750 3233 4129 
Q 3647 3509 3647 2328 
Q 3647 1150 3233 529 
Q 2819 -91 2034 -91 
Q 1250 -91 836 529 
Q 422 1150 422 2328 
Q 422 3509 836 4129 
Q 1250 4750 2034 4750 
z
" transform="scale(0.015625)"/>
        <path id="DejaVuSans-2e" d="M 684 794 
L 1344 794 
L 1344 0 
L 684 0 
L 684 794 
z
" transform="scale(0.015625)"/>
       </defs>
       <use xlink:href="#DejaVuSans-30"/>
       <use xlink:href="#DejaVuSans-2e" x="63.623047"/>
       <use xlink:href="#DejaVuSans-30" x="95.410156"/>
       <use xlink:href="#DejaVuSans-30" x="159.033203"/>
      </g>
     </g>
    </g>
    <g id="xtick_2">
     <g id="line2d_2">
      <g>
       <use xlink:href="#me54a3d5563" x="154.996364" y="307.584" style="stroke: #000000; stroke-width: 0.8"/>
      </g>
     </g>
     <g id="text_2">
      <!-- 0.25 -->
      <g transform="translate(143.863551 322.182437)scale(0.1 -0.1)">
       <defs>
        <path id="DejaVuSans-32" d="M 1228 531 
L 3431 531 
L 3431 0 
L 469 0 
L 469 531 
Q 828 903 1448 1529 
Q 2069 2156 2228 2338 
Q 2531 2678 2651 2914 
Q 2772 3150 2772 3378 
Q 2772 3750 2511 3984 
Q 2250 4219 1831 4219 
Q 1534 4219 1204 4116 
Q 875 4013 500 3803 
L 500 4441 
Q 881 4594 1212 4672 
Q 1544 4750 1819 4750 
Q 2544 4750 2975 4387 
Q 3406 4025 3406 3419 
Q 3406 3131 3298 2873 
Q 3191 2616 2906 2266 
Q 2828 2175 2409 1742 
Q 1991 1309 1228 531 
z
" transform="scale(0.015625)"/>
        <path id="DejaVuSans-35" d="M 691 4666 
L 3169 4666 
L 3169 4134 
L 1269 4134 
L 1269 2991 
Q 1406 3038 1543 3061 
Q 1681 3084 1819 3084 
Q 2600 3084 3056 2656 
Q 3513 2228 3513 1497 
Q 3513 744 3044 326 
Q 2575 -91 1722 -91 
Q 1428 -91 1123 -41 
Q 819 9 494 109 
L 494 744 
Q 775 591 1075 516 
Q 1375 441 1709 441 
Q 2250 441 2565 725 
Q 2881 1009 2881 1497 
Q 2881 1984 2565 2268 
Q 2250 2553 1709 2553 
Q 1456 2553 1204 2497 
Q 953 2441 691 2322 
L 691 4666 
z
" transform="scale(0.015625)"/>
       </defs>
       <use xlink:href="#DejaVuSans-30"/>
       <use xlink:href="#DejaVuSans-2e" x="63.623047"/>
       <use xlink:href="#DejaVuSans-32" x="95.410156"/>
       <use xlink:href="#DejaVuSans-35" x="159.033203"/>
      </g>
     </g>
    </g>
    <g id="xtick_3">
     <g id="line2d_3">
      <g>
       <use xlink:href="#me54a3d5563" x="236.16" y="307.584" style="stroke: #000000; stroke-width: 0.8"/>
      </g>
     </g>
     <g id="text_3">
      <!-- 0.50 -->
      <g transform="translate(225.027187 322.182437)scale(0.1 -0.1)">
       <use xlink:href="#DejaVuSans-30"/>
       <use xlink:href="#DejaVuSans-2e" x="63.623047"/>
       <use xlink:href="#DejaVuSans-35" x="95.410156"/>
       <use xlink:href="#DejaVuSans-30" x="159.033203"/>
      </g>
     </g>
    </g>
    <g id="xtick_4">
     <g id="line2d_4">
      <g>
       <use xlink:href="#me54a3d5563" x="317.323636" y="307.584" style="stroke: #000000; stroke-width: 0.8"/>
      </g>
     </g>
     <g id="text_4">
      <!-- 0.75 -->
      <g transform="translate(306.190824 322.182437)scale(0.1 -0.1)">
       <defs>
        <path id="DejaVuSans-37" d="M 525 4666 
L 3525 4666 
L 3525 4397 
L 1831 0 
L 1172 0 
L 2766 4134 
L 525 4134 
L 525 4666 
z
" transform="scale(0.015625)"/>
       </defs>
       <use xlink:href="#DejaVuSans-30"/>
       <use xlink:href="#DejaVuSans-2e" x="63.623047"/>
       <use xlink:href="#DejaVuSans-37" x="95.410156"/>
       <use xlink:href="#DejaVuSans-35" x="159.033203"/>
      </g>
     </g>
    </g>
    <g id="xtick_5">
     <g id="line2d_5">
      <g>
       <use xlink:href="#me54a3d5563" x="398.487273" y="307.584" style="stroke: #000000; stroke-width: 0.8"/>
      </g>
     </g>
     <g id="text_5">
      <!-- 1.00 -->
      <g transform="translate(387.35446 322.182437)scale(0.1 -0.1)">
       <defs>
        <path id="DejaVuSans-31" d="M 794 531 
L 1825 531 
L 1825 4091 
L 703 3866 
L 703 4441 
L 1819 4666 
L 2450 4666 
L 2450 531 
L 3481 531 
L 3481 0 
L 794 0 
L 794 531 
z
" transform="scale(0.015625)"/>
       </defs>
       <use xlink:href="#DejaVuSans-31"/>
       <use xlink:href="#DejaVuSans-2e" x="63.623047"/>
       <use xlink:href="#DejaVuSans-30" x="95.410156"/>
       <use xlink:href="#DejaVuSans-30" x="159.033203"/>
      </g>
     </g>
    </g>
    <g id="text_6">
     <!-- x_0 -->
     <g transform="translate(227.519375 335.684)scale(0.1 -0.1)">
      <defs>
       <path id="DejaVuSans-78" d="M 3513 3500 
L 2247 1797 
L 3578 0 
L 2900 0 
L 1881 1375 
L 863 0 
L 184 0 
L 1544 1831 
L 300 3500 
L 978 3500 
L 1906 2253 
L 2834 3500 
L 3513 3500 
z
" transform="scale(0.015625)"/>
       <path id="DejaVuSans-5f" d="M 3263 -1063 
L 3263 -1509 
L -63 -1509 
L -63 -1063 
L 3263 -1063 
z
" transform="scale(0.015625)"/>
      </defs>
      <use xlink:href="#DejaVuSans-78"/>
      <use xlink:href="#DejaVuSans-5f" x="59.179688"/>
      <use xlink:href="#DejaVuSans-30" x="109.179688"/>
     </g>
    </g>
   </g>
   <g id="matplotlib.axis_2">
    <g id="ytick_1">
     <g id="line2d_6">
      <defs>
       <path id="mc31dd5308a" d="M 0 0 
L -3.5 0 
" style="stroke: #000000; stroke-width: 0.8"/>
      </defs>
      <g>
       <use xlink:href="#mc31dd5308a" x="57.6" y="295.488" style="stroke: #000000; stroke-width: 0.8"/>
      </g>
     </g>
     <g id="text_7">
      <!-- 0.0 -->
      <g transform="translate(34.696875 299.287219)scale(0.1 -0.1)">
       <use xlink:href="#DejaVuSans-30"/>
       <use xlink:href="#DejaVuSans-2e" x="63.623047"/>
       <use xlink:href="#DejaVuSans-30" x="95.410156"/>
      </g>
     </g>
    </g>
    <g id="ytick_2">
     <g id="line2d_7">
      <g>
       <use xlink:href="#mc31dd5308a" x="57.6" y="247.104" style="stroke: #000000; stroke-width: 0.8"/>
      </g>
     </g>
     <g id="text_8">
      <!-- 0.2 -->
      <g transform="translate(34.696875 250.903219)scale(0.1 -0.1)">
       <use xlink:href="#DejaVuSans-30"/>
       <use xlink:href="#DejaVuSans-2e" x="63.623047"/>
       <use xlink:href="#DejaVuSans-32" x="95.410156"/>
      </g>
     </g>
    </g>
    <g id="ytick_3">
     <g id="line2d_8">
      <g>
       <use xlink:href="#mc31dd5308a" x="57.6" y="198.72" style="stroke: #000000; stroke-width: 0.8"/>
      </g>
     </g>
     <g id="text_9">
      <!-- 0.4 -->
      <g transform="translate(34.696875 202.519219)scale(0.1 -0.1)">
       <defs>
        <path id="DejaVuSans-34" d="M 2419 4116 
L 825 1625 
L 2419 1625 
L 2419 4116 
z
M 2253 4666 
L 3047 4666 
L 3047 1625 
L 3713 1625 
L 3713 1100 
L 3047 1100 
L 3047 0 
L 2419 0 
L 2419 1100 
L 313 1100 
L 313 1709 
L 2253 4666 
z
" transform="scale(0.015625)"/>
       </defs>
       <use xlink:href="#DejaVuSans-30"/>
       <use xlink:href="#DejaVuSans-2e" x="63.623047"/>
       <use xlink:href="#DejaVuSans-34" x="95.410156"/>
      </g>
     </g>
    </g>
    <g id="ytick_4">
     <g id="line2d_9">
      <g>
       <use xlink:href="#mc31dd5308a" x="57.6" y="150.336" style="stroke: #000000; stroke-width: 0.8"/>
      </g>
     </g>
     <g id="text_10">
      <!-- 0.6 -->
      <g transform="translate(34.696875 154.135219)scale(0.1 -0.1)">
       <defs>
        <path id="DejaVuSans-36" d="M 2113 2584 
Q 1688 2584 1439 2293 
Q 1191 2003 1191 1497 
Q 1191 994 1439 701 
Q 1688 409 2113 409 
Q 2538 409 2786 701 
Q 3034 994 3034 1497 
Q 3034 2003 2786 2293 
Q 2538 2584 2113 2584 
z
M 3366 4563 
L 3366 3988 
Q 3128 4100 2886 4159 
Q 2644 4219 2406 4219 
Q 1781 4219 1451 3797 
Q 1122 3375 1075 2522 
Q 1259 2794 1537 2939 
Q 1816 3084 2150 3084 
Q 2853 3084 3261 2657 
Q 3669 2231 3669 1497 
Q 3669 778 3244 343 
Q 2819 -91 2113 -91 
Q 1303 -91 875 529 
Q 447 1150 447 2328 
Q 447 3434 972 4092 
Q 1497 4750 2381 4750 
Q 2619 4750 2861 4703 
Q 3103 4656 3366 4563 
z
" transform="scale(0.015625)"/>
       </defs>
       <use xlink:href="#DejaVuSans-30"/>
       <use xlink:href="#DejaVuSans-2e" x="63.623047"/>
       <use xlink:href="#DejaVuSans-36" x="95.410156"/>
      </g>
     </g>
    </g>
    <g id="ytick_5">
     <g id="line2d_10">
      <g>
       <use xlink:href="#mc31dd5308a" x="57.6" y="101.952" style="stroke: #000000; stroke-width: 0.8"/>
      </g>
     </g>
     <g id="text_11">
      <!-- 0.8 -->
      <g transform="translate(34.696875 105.751219)scale(0.1 -0.1)">
       <defs>
        <path id="DejaVuSans-38" d="M 2034 2216 
Q 1584 2216 1326 1975 
Q 1069 1734 1069 1313 
Q 1069 891 1326 650 
Q 1584 409 2034 409 
Q 2484 409 2743 651 
Q 3003 894 3003 1313 
Q 3003 1734 2745 1975 
Q 2488 2216 2034 2216 
z
M 1403 2484 
Q 997 2584 770 2862 
Q 544 3141 544 3541 
Q 544 4100 942 4425 
Q 1341 4750 2034 4750 
Q 2731 4750 3128 4425 
Q 3525 4100 3525 3541 
Q 3525 3141 3298 2862 
Q 3072 2584 2669 2484 
Q 3125 2378 3379 2068 
Q 3634 1759 3634 1313 
Q 3634 634 3220 271 
Q 2806 -91 2034 -91 
Q 1263 -91 848 271 
Q 434 634 434 1313 
Q 434 1759 690 2068 
Q 947 2378 1403 2484 
z
M 1172 3481 
Q 1172 3119 1398 2916 
Q 1625 2713 2034 2713 
Q 2441 2713 2670 2916 
Q 2900 3119 2900 3481 
Q 2900 3844 2670 4047 
Q 2441 4250 2034 4250 
Q 1625 4250 1398 4047 
Q 1172 3844 1172 3481 
z
" transform="scale(0.015625)"/>
       </defs>
       <use xlink:href="#DejaVuSans-30"/>
       <use xlink:href="#DejaVuSans-2e" x="63.623047"/>
       <use xlink:href="#DejaVuSans-38" x="95.410156"/>
      </g>
     </g>
    </g>
    <g id="ytick_6">
     <g id="line2d_11">
      <g>
       <use xlink:href="#mc31dd5308a" x="57.6" y="53.568" style="stroke: #000000; stroke-width: 0.8"/>
      </g>
     </g>
     <g id="text_12">
      <!-- 1.0 -->
      <g transform="translate(34.696875 57.367219)scale(0.1 -0.1)">
       <use xlink:href="#DejaVuSans-31"/>
       <use xlink:href="#DejaVuSans-2e" x="63.623047"/>
       <use xlink:href="#DejaVuSans-30" x="95.410156"/>
      </g>
     </g>
    </g>
   </g>
   <g id="line2d_12">
    <path d="M 73.832727 53.568 
L 76.450909 68.924004 
M 76.450909 68.924004 
L 79.069091 83.776533 
M 79.069091 83.776533 
L 81.687273 98.125586 
M 81.687273 98.125586 
L 84.305455 111.971163 
M 84.305455 111.971163 
L 86.923636 125.313265 
M 86.923636 125.313265 
L 89.541818 138.151892 
M 89.541818 138.151892 
L 92.16 150.487043 
M 92.16 150.487043 
L 94.778182 162.318718 
M 94.778182 162.318718 
L 97.396364 173.646918 
M 97.396364 173.646918 
L 100.014545 184.471642 
M 100.014545 184.471642 
L 102.632727 194.792891 
M 102.632727 194.792891 
L 105.250909 204.610664 
M 105.250909 204.610664 
L 107.869091 213.924961 
M 107.869091 213.924961 
L 110.487273 222.735784 
M 110.487273 222.735784 
L 113.105455 231.04313 
M 113.105455 231.04313 
L 115.723636 238.847001 
M 115.723636 238.847001 
L 118.341818 246.147396 
M 118.341818 246.147396 
L 120.96 252.944316 
M 120.96 252.944316 
L 123.578182 259.237761 
M 123.578182 259.237761 
L 126.196364 265.027729 
M 126.196364 265.027729 
L 128.814545 270.314223 
M 128.814545 270.314223 
L 131.432727 275.09724 
M 131.432727 275.09724 
L 134.050909 279.376783 
M 134.050909 279.376783 
L 136.669091 283.152849 
M 136.669091 283.152849 
L 139.287273 286.42544 
M 139.287273 286.42544 
L 141.905455 289.194556 
M 141.905455 289.194556 
L 144.523636 291.460196 
M 144.523636 291.460196 
L 147.141818 293.22236 
M 147.141818 293.22236 
L 149.76 294.481049 
M 149.76 294.481049 
L 152.378182 295.236262 
M 152.378182 295.236262 
L 154.996364 295.488 
M 154.996364 295.488 
L 157.614545 295.488 
M 157.614545 295.488 
L 160.232727 295.488 
M 160.232727 295.488 
L 162.850909 295.488 
M 162.850909 295.488 
L 165.469091 295.488 
M 165.469091 295.488 
L 168.087273 295.488 
M 168.087273 295.488 
L 170.705455 295.488 
M 170.705455 295.488 
L 173.323636 295.488 
M 173.323636 295.488 
L 175.941818 295.488 
M 175.941818 295.488 
L 178.56 295.488 
M 178.56 295.488 
L 181.178182 295.488 
M 181.178182 295.488 
L 183.796364 295.488 
M 183.796364 295.488 
L 186.414545 295.488 
M 186.414545 295.488 
L 189.032727 295.488 
M 189.032727 295.488 
L 191.650909 295.488 
M 191.650909 295.488 
L 194.269091 295.488 
M 194.269091 295.488 
L 196.887273 295.488 
M 196.887273 295.488 
L 199.505455 295.488 
M 199.505455 295.488 
L 202.123636 295.488 
M 202.123636 295.488 
L 204.741818 295.488 
M 204.741818 295.488 
L 207.36 295.488 
M 207.36 295.488 
L 209.978182 295.488 
M 209.978182 295.488 
L 212.596364 295.488 
M 212.596364 295.488 
L 215.214545 295.488 
M 215.214545 295.488 
L 217.832727 295.488 
M 217.832727 295.488 
L 220.450909 295.488 
M 220.450909 295.488 
L 223.069091 295.488 
M 223.069091 295.488 
L 225.687273 295.488 
M 225.687273 295.488 
L 228.305455 295.488 
M 228.305455 295.488 
L 230.923636 295.488 
M 230.923636 295.488 
L 233.541818 295.488 
M 233.541818 295.488 
L 236.16 295.488 
M 236.16 295.488 
L 238.778182 295.488 
M 238.778182 295.488 
L 241.396364 295.488 
M 241.396364 295.488 
L 244.014545 295.488 
M 244.014545 295.488 
L 246.632727 295.488 
M 246.632727 295.488 
L 249.250909 295.488 
M 249.250909 295.488 
L 251.869091 295.488 
M 251.869091 295.488 
L 254.487273 295.488 
M 254.487273 295.488 
L 257.105455 295.488 
M 257.105455 295.488 
L 259.723636 295.488 
M 259.723636 295.488 
L 262.341818 295.488 
M 262.341818 295.488 
L 264.96 295.488 
M 264.96 295.488 
L 267.578182 295.488 
M 267.578182 295.488 
L 270.196364 295.488 
M 270.196364 295.488 
L 272.814545 295.488 
M 272.814545 295.488 
L 275.432727 295.488 
M 275.432727 295.488 
L 278.050909 295.488 
M 278.050909 295.488 
L 280.669091 295.488 
M 280.669091 295.488 
L 283.287273 295.488 
M 283.287273 295.488 
L 285.905455 295.488 
M 285.905455 295.488 
L 288.523636 295.488 
M 288.523636 295.488 
L 291.141818 295.488 
M 291.141818 295.488 
L 293.76 295.488 
M 293.76 295.488 
L 296.378182 295.488 
M 296.378182 295.488 
L 298.996364 295.488 
M 298.996364 295.488 
L 301.614545 295.488 
M 301.614545 295.488 
L 304.232727 295.488 
M 304.232727 295.488 
L 306.850909 295.488 
M 306.850909 295.488 
L 309.469091 295.488 
M 309.469091 295.488 
L 312.087273 295.488 
M 312.087273 295.488 
L 314.705455 295.488 
M 314.705455 295.488 
L 317.323636 295.488 
M 317.323636 295.488 
L 319.941818 295.488 
M 319.941818 295.488 
L 322.56 295.488 
M 322.56 295.488 
L 325.178182 295.488 
M 325.178182 295.488 
L 327.796364 295.488 
M 327.796364 295.488 
L 330.414545 295.488 
M 330.414545 295.488 
L 333.032727 295.488 
M 333.032727 295.488 
L 335.650909 295.488 
M 335.650909 295.488 
L 338.269091 295.488 
M 338.269091 295.488 
L 340.887273 295.488 
M 340.887273 295.488 
L 343.505455 295.488 
M 343.505455 295.488 
L 346.123636 295.488 
M 346.123636 295.488 
L 348.741818 295.488 
M 348.741818 295.488 
L 351.36 295.488 
M 351.36 295.488 
L 353.978182 295.488 
M 353.978182 295.488 
L 356.596364 295.488 
M 356.596364 295.488 
L 359.214545 295.488 
M 359.214545 295.488 
L 361.832727 295.488 
M 361.832727 295.488 
L 364.450909 295.488 
M 364.450909 295.488 
L 367.069091 295.488 
M 367.069091 295.488 
L 369.687273 295.488 
M 369.687273 295.488 
L 372.305455 295.488 
M 372.305455 295.488 
L 374.923636 295.488 
M 374.923636 295.488 
L 377.541818 295.488 
M 377.541818 295.488 
L 380.16 295.488 
M 380.16 295.488 
L 382.778182 295.488 
M 382.778182 295.488 
L 385.396364 295.488 
M 385.396364 295.488 
L 388.014545 295.488 
M 388.014545 295.488 
L 390.632727 295.488 
M 390.632727 295.488 
L 393.250909 295.488 
M 393.250909 295.488 
L 395.869091 295.488 
M 395.869091 295.488 
L 398.487273 295.488 
L 398.487273 295.488 
" clip-path="url(#pf505eaf84c)" style="fill: none; stroke: #1f77b4; stroke-width: 1.5; stroke-linecap: square"/>
   </g>
   <g id="line2d_13">
    <path d="M 73.832727 295.488 
L 76.450909 280.383734 
M 76.450909 280.383734 
L 79.069091 266.286418 
M 79.069091 266.286418 
L 81.687273 253.196054 
M 81.687273 253.196054 
L 84.305455 241.112641 
M 84.305455 241.112641 
L 86.923636 230.036179 
M 86.923636 230.036179 
L 89.541818 219.966668 
M 89.541818 219.966668 
L 92.16 210.904108 
M 92.16 210.904108 
L 94.778182 202.848499 
M 94.778182 202.848499 
L 97.396364 195.799842 
M 97.396364 195.799842 
L 100.014545 189.758135 
M 100.014545 189.758135 
L 102.632727 184.72338 
M 102.632727 184.72338 
L 105.250909 180.695575 
M 105.250909 180.695575 
L 107.869091 177.674722 
M 107.869091 177.674722 
L 110.487273 175.66082 
M 110.487273 175.66082 
L 113.105455 174.653869 
M 113.105455 174.653869 
L 115.723636 174.653869 
M 115.723636 174.653869 
L 118.341818 175.66082 
M 118.341818 175.66082 
L 120.96 177.674722 
M 120.96 177.674722 
L 123.578182 180.695575 
M 123.578182 180.695575 
L 126.196364 184.72338 
M 126.196364 184.72338 
L 128.814545 189.758135 
M 128.814545 189.758135 
L 131.432727 195.799842 
M 131.432727 195.799842 
L 134.050909 202.848499 
M 134.050909 202.848499 
L 136.669091 210.904108 
M 136.669091 210.904108 
L 139.287273 219.966668 
M 139.287273 219.966668 
L 141.905455 230.036179 
M 141.905455 230.036179 
L 144.523636 241.112641 
M 144.523636 241.112641 
L 147.141818 253.196054 
M 147.141818 253.196054 
L 149.76 266.286418 
M 149.76 266.286418 
L 152.378182 280.383734 
M 152.378182 280.383734 
L 154.996364 295.488 
M 154.996364 295.488 
L 157.614545 295.488 
M 157.614545 295.488 
L 160.232727 295.488 
M 160.232727 295.488 
L 162.850909 295.488 
M 162.850909 295.488 
L 165.469091 295.488 
M 165.469091 295.488 
L 168.087273 295.488 
M 168.087273 295.488 
L 170.705455 295.488 
M 170.705455 295.488 
L 173.323636 295.488 
M 173.323636 295.488 
L 175.941818 295.488 
M 175.941818 295.488 
L 178.56 295.488 
M 178.56 295.488 
L 181.178182 295.488 
M 181.178182 295.488 
L 183.796364 295.488 
M 183.796364 295.488 
L 186.414545 295.488 
M 186.414545 295.488 
L 189.032727 295.488 
M 189.032727 295.488 
L 191.650909 295.488 
M 191.650909 295.488 
L 194.269091 295.488 
M 194.269091 295.488 
L 196.887273 295.488 
M 196.887273 295.488 
L 199.505455 295.488 
M 199.505455 295.488 
L 202.123636 295.488 
M 202.123636 295.488 
L 204.741818 295.488 
M 204.741818 295.488 
L 207.36 295.488 
M 207.36 295.488 
L 209.978182 295.488 
M 209.978182 295.488 
L 212.596364 295.488 
M 212.596364 295.488 
L 215.214545 295.488 
M 215.214545 295.488 
L 217.832727 295.488 
M 217.832727 295.488 
L 220.450909 295.488 
M 220.450909 295.488 
L 223.069091 295.488 
M 223.069091 295.488 
L 225.687273 295.488 
M 225.687273 295.488 
L 228.305455 295.488 
M 228.305455 295.488 
L 230.923636 295.488 
M 230.923636 295.488 
L 233.541818 295.488 
M 233.541818 295.488 
L 236.16 295.488 
M 236.16 295.488 
L 238.778182 295.488 
M 238.778182 295.488 
L 241.396364 295.488 
M 241.396364 295.488 
L 244.014545 295.488 
M 244.014545 295.488 
L 246.632727 295.488 
M 246.632727 295.488 
L 249.250909 295.488 
M 249.250909 295.488 
L 251.869091 295.488 
M 251.869091 295.488 
L 254.487273 295.488 
M 254.487273 295.488 
L 257.105455 295.488 
M 257.105455 295.488 
L 259.723636 295.488 
M 259.723636 295.488 
L 262.341818 295.488 
M 262.341818 295.488 
L 264.96 295.488 
M 264.96 295.488 
L 267.578182 295.488 
M 267.578182 295.488 
L 270.196364 295.488 
M 270.196364 295.488 
L 272.814545 295.488 
M 272.814545 295.488 
L 275.432727 295.488 
M 275.432727 295.488 
L 278.050909 295.488 
M 278.050909 295.488 
L 280.669091 295.488 
M 280.669091 295.488 
L 283.287273 295.488 
M 283.287273 295.488 
L 285.905455 295.488 
M 285.905455 295.488 
L 288.523636 295.488 
M 288.523636 295.488 
L 291.141818 295.488 
M 291.141818 295.488 
L 293.76 295.488 
M 293.76 295.488 
L 296.378182 295.488 
M 296.378182 295.488 
L 298.996364 295.488 
M 298.996364 295.488 
L 301.614545 295.488 
M 301.614545 295.488 
L 304.232727 295.488 
M 304.232727 295.488 
L 306.850909 295.488 
M 306.850909 295.488 
L 309.469091 295.488 
M 309.469091 295.488 
L 312.087273 295.488 
M 312.087273 295.488 
L 314.705455 295.488 
M 314.705455 295.488 
L 317.323636 295.488 
M 317.323636 295.488 
L 319.941818 295.488 
M 319.941818 295.488 
L 322.56 295.488 
M 322.56 295.488 
L 325.178182 295.488 
M 325.178182 295.488 
L 327.796364 295.488 
M 327.796364 295.488 
L 330.414545 295.488 
M 330.414545 295.488 
L 333.032727 295.488 
M 333.032727 295.488 
L 335.650909 295.488 
M 335.650909 295.488 
L 338.269091 295.488 
M 338.269091 295.488 
L 340.887273 295.488 
M 340.887273 295.488 
L 343.505455 295.488 
M 343.505455 295.488 
L 346.123636 295.488 
M 346.123636 295.488 
L 348.741818 295.488 
M 348.741818 295.488 
L 351.36 295.488 
M 351.36 295.488 
L 353.978182 295.488 
M 353.978182 295.488 
L 356.596364 295.488 
M 356.596364 295.488 
L 359.214545 295.488 
M 359.214545 295.488 
L 361.832727 295.488 
M 361.832727 295.488 
L 364.450909 295.488 
M 364.450909 295.488 
L 367.069091 295.488 
M 367.069091 295.488 
L 369.687273 295.488 
M 369.687273 295.488 
L 372.305455 295.488 
M 372.305455 295.488 
L 374.923636 295.488 
M 374.923636 295.488 
L 377.541818 295.488 
M 377.541818 295.488 
L 380.16 295.488 
M 380.16 295.488 
L 382.778182 295.488 
M 382.778182 295.488 
L 385.396364 295.488 
M 385.396364 295.488 
L 388.014545 295.488 
M 388.014545 295.488 
L 390.632727 295.488 
M 390.632727 295.488 
L 393.250909 295.488 
M 393.250909 295.488 
L 395.869091 295.488 
M 395.869091 295.488 
L 398.487273 295.488 
L 398.487273 295.488 
" clip-path="url(#pf505eaf84c)" style="fill: none; stroke: #ff7f0e; stroke-width: 1.5; stroke-linecap: square"/>
   </g>
   <g id="line2d_14">
    <path d="M 73.832727 295.488 
L 76.450909 295.236262 
M 76.450909 295.236262 
L 79.069091 294.481049 
M 79.069091 294.481049 
L 81.687273 293.22236 
M 81.687273 293.22236 
L 84.305455 291.460196 
M 84.305455 291.460196 
L 86.923636 289.194556 
M 86.923636 289.194556 
L 89.541818 286.42544 
M 89.541818 286.42544 
L 92.16 283.152849 
M 92.16 283.152849 
L 94.778182 279.376783 
M 94.778182 279.376783 
L 97.396364 275.09724 
M 97.396364 275.09724 
L 100.014545 270.314223 
M 100.014545 270.314223 
L 102.632727 265.027729 
M 102.632727 265.027729 
L 105.250909 259.237761 
M 105.250909 259.237761 
L 107.869091 252.944316 
M 107.869091 252.944316 
L 110.487273 246.147396 
M 110.487273 246.147396 
L 113.105455 238.847001 
M 113.105455 238.847001 
L 115.723636 231.04313 
M 115.723636 231.04313 
L 118.341818 222.735784 
M 118.341818 222.735784 
L 120.96 213.924961 
M 120.96 213.924961 
L 123.578182 204.610664 
M 123.578182 204.610664 
L 126.196364 194.792891 
M 126.196364 194.792891 
L 128.814545 184.471642 
M 128.814545 184.471642 
L 131.432727 173.646918 
M 131.432727 173.646918 
L 134.050909 162.318718 
M 134.050909 162.318718 
L 136.669091 150.487043 
M 136.669091 150.487043 
L 139.287273 138.151892 
M 139.287273 138.151892 
L 141.905455 125.313265 
M 141.905455 125.313265 
L 144.523636 111.971163 
M 144.523636 111.971163 
L 147.141818 98.125586 
M 147.141818 98.125586 
L 149.76 83.776533 
M 149.76 83.776533 
L 152.378182 68.924004 
M 152.378182 68.924004 
L 154.996364 53.568 
M 154.996364 53.568 
L 157.614545 68.924004 
M 157.614545 68.924004 
L 160.232727 83.776533 
M 160.232727 83.776533 
L 162.850909 98.125586 
M 162.850909 98.125586 
L 165.469091 111.971163 
M 165.469091 111.971163 
L 168.087273 125.313265 
M 168.087273 125.313265 
L 170.705455 138.151892 
M 170.705455 138.151892 
L 173.323636 150.487043 
M 173.323636 150.487043 
L 175.941818 162.318718 
M 175.941818 162.318718 
L 178.56 173.646918 
M 178.56 173.646918 
L 181.178182 184.471642 
M 181.178182 184.471642 
L 183.796364 194.792891 
M 183.796364 194.792891 
L 186.414545 204.610664 
M 186.414545 204.610664 
L 189.032727 213.924961 
M 189.032727 213.924961 
L 191.650909 222.735784 
M 191.650909 222.735784 
L 194.269091 231.04313 
M 194.269091 231.04313 
L 196.887273 238.847001 
M 196.887273 238.847001 
L 199.505455 246.147396 
M 199.505455 246.147396 
L 202.123636 252.944316 
M 202.123636 252.944316 
L 204.741818 259.237761 
M 204.741818 259.237761 
L 207.36 265.027729 
M 207.36 265.027729 
L 209.978182 270.314223 
M 209.978182 270.314223 
L 212.596364 275.09724 
M 212.596364 275.09724 
L 215.214545 279.376783 
M 215.214545 279.376783 
L 217.832727 283.152849 
M 217.832727 283.152849 
L 220.450909 286.42544 
M 220.450909 286.42544 
L 223.069091 289.194556 
M 223.069091 289.194556 
L 225.687273 291.460196 
M 225.687273 291.460196 
L 228.305455 293.22236 
M 228.305455 293.22236 
L 230.923636 294.481049 
M 230.923636 294.481049 
L 233.541818 295.236262 
M 233.541818 295.236262 
L 236.16 295.488 
M 236.16 295.488 
L 238.778182 295.488 
M 238.778182 295.488 
L 241.396364 295.488 
M 241.396364 295.488 
L 244.014545 295.488 
M 244.014545 295.488 
L 246.632727 295.488 
M 246.632727 295.488 
L 249.250909 295.488 
M 249.250909 295.488 
L 251.869091 295.488 
M 251.869091 295.488 
L 254.487273 295.488 
M 254.487273 295.488 
L 257.105455 295.488 
M 257.105455 295.488 
L 259.723636 295.488 
M 259.723636 295.488 
L 262.341818 295.488 
M 262.341818 295.488 
L 264.96 295.488 
M 264.96 295.488 
L 267.578182 295.488 
M 267.578182 295.488 
L 270.196364 295.488 
M 270.196364 295.488 
L 272.814545 295.488 
M 272.814545 295.488 
L 275.432727 295.488 
M 275.432727 295.488 
L 278.050909 295.488 
M 278.050909 295.488 
L 280.669091 295.488 
M 280.669091 295.488 
L 283.287273 295.488 
M 283.287273 295.488 
L 285.905455 295.488 
M 285.905455 295.488 
L 288.523636 295.488 
M 288.523636 295.488 
L 291.141818 295.488 
M 291.141818 295.488 
L 293.76 295.488 
M 293.76 295.488 
L 296.378182 295.488 
M 296.378182 295.488 
L 298.996364 295.488 
M 298.996364 295.488 
L 301.614545 295.488 
M 301.614545 295.488 
L 304.232727 295.488 
M 304.232727 295.488 
L 306.850909 295.488 
M 306.850909 295.488 
L 309.469091 295.488 
M 309.469091 295.488 
L 312.087273 295.488 
M 312.087273 295.488 
L 314.705455 295.488 
M 314.705455 295.488 
L 317.323636 295.488 
M 317.323636 295.488 
L 319.941818 295.488 
M 319.941818 295.488 
L 322.56 295.488 
M 322.56 295.488 
L 325.178182 295.488 
M 325.178182 295.488 
L 327.796364 295.488 
M 327.796364 295.488 
L 330.414545 295.488 
M 330.414545 295.488 
L 333.032727 295.488 
M 333.032727 295.488 
L 335.650909 295.488 
M 335.650909 295.488 
L 338.269091 295.488 
M 338.269091 295.488 
L 340.887273 295.488 
M 340.887273 295.488 
L 343.505455 295.488 
M 343.505455 295.488 
L 346.123636 295.488 
M 346.123636 295.488 
L 348.741818 295.488 
M 348.741818 295.488 
L 351.36 295.488 
M 351.36 295.488 
L 353.978182 295.488 
M 353.978182 295.488 
L 356.596364 295.488 
M 356.596364 295.488 
L 359.214545 295.488 
M 359.214545 295.488 
L 361.832727 295.488 
M 361.832727 295.488 
L 364.450909 295.488 
M 364.450909 295.488 
L 367.069091 295.488 
M 367.069091 295.488 
L 369.687273 295.488 
M 369.687273 295.488 
L 372.305455 295.488 
M 372.305455 295.488 
L 374.923636 295.488 
M 374.923636 295.488 
L 377.541818 295.488 
M 377.541818 295.488 
L 380.16 295.488 
M 380.16 295.488 
L 382.778182 295.488 
M 382.778182 295.488 
L 385.396364 295.488 
M 385.396364 295.488 
L 388.014545 295.488 
M 388.014545 295.488 
L 390.632727 295.488 
M 390.632727 295.488 
L 393.250909 295.488 
M 393.250909 295.488 
L 395.869091 295.488 
M 395.869091 295.488 
L 398.487273 295.488 
L 398.487273 295.488 
" clip-path="url(#pf505eaf84c)" style="fill: none; stroke: #2ca02c; stroke-width: 1.5; stroke-linecap: square"/>
   </g>
   <g id="line2d_15">
    <path d="M 73.832727 295.488 
L 76.450909 295.488 
M 76.450909 295.488 
L 79.069091 295.488 
M 79.069091 295.488 
L 81.687273 295.488 
M 81.687273 295.488 
L 84.305455 295.488 
M 84.305455 295.488 
L 86.923636 295.488 
M 86.923636 295.488 
L 89.541818 295.488 
M 89.541818 295.488 
L 92.16 295.488 
M 92.16 295.488 
L 94.778182 295.488 
M 94.778182 295.488 
L 97.396364 295.488 
M 97.396364 295.488 
L 100.014545 295.488 
M 100.014545 295.488 
L 102.632727 295.488 
M 102.632727 295.488 
L 105.250909 295.488 
M 105.250909 295.488 
L 107.869091 295.488 
M 107.869091 295.488 
L 110.487273 295.488 
M 110.487273 295.488 
L 113.105455 295.488 
M 113.105455 295.488 
L 115.723636 295.488 
M 115.723636 295.488 
L 118.341818 295.488 
M 118.341818 295.488 
L 120.96 295.488 
M 120.96 295.488 
L 123.578182 295.488 
M 123.578182 295.488 
L 126.196364 295.488 
M 126.196364 295.488 
L 128.814545 295.488 
M 128.814545 295.488 
L 131.432727 295.488 
M 131.432727 295.488 
L 134.050909 295.488 
M 134.050909 295.488 
L 136.669091 295.488 
M 136.669091 295.488 
L 139.287273 295.488 
M 139.287273 295.488 
L 141.905455 295.488 
M 141.905455 295.488 
L 144.523636 295.488 
M 144.523636 295.488 
L 147.141818 295.488 
M 147.141818 295.488 
L 149.76 295.488 
M 149.76 295.488 
L 152.378182 295.488 
M 152.378182 295.488 
L 154.996364 295.488 
M 154.996364 295.488 
L 157.614545 280.383734 
M 157.614545 280.383734 
L 160.232727 266.286418 
M 160.232727 266.286418 
L 162.850909 253.196054 
M 162.850909 253.196054 
L 165.469091 241.112641 
M 165.469091 241.112641 
L 168.087273 230.036179 
M 168.087273 230.036179 
L 170.705455 219.966668 
M 170.705455 219.966668 
L 173.323636 210.904108 
M 173.323636 210.904108 
L 175.941818 202.848499 
M 175.941818 202.848499 
L 178.56 195.799842 
M 178.56 195.799842 
L 181.178182 189.758135 
M 181.178182 189.758135 
L 183.796364 184.72338 
M 183.796364 184.72338 
L 186.414545 180.695575 
M 186.414545 180.695575 
L 189.032727 177.674722 
M 189.032727 177.674722 
L 191.650909 175.66082 
M 191.650909 175.66082 
L 194.269091 174.653869 
M 194.269091 174.653869 
L 196.887273 174.653869 
M 196.887273 174.653869 
L 199.505455 175.66082 
M 199.505455 175.66082 
L 202.123636 177.674722 
M 202.123636 177.674722 
L 204.741818 180.695575 
M 204.741818 180.695575 
L 207.36 184.72338 
M 207.36 184.72338 
L 209.978182 189.758135 
M 209.978182 189.758135 
L 212.596364 195.799842 
M 212.596364 195.799842 
L 215.214545 202.848499 
M 215.214545 202.848499 
L 217.832727 210.904108 
M 217.832727 210.904108 
L 220.450909 219.966668 
M 220.450909 219.966668 
L 223.069091 230.036179 
M 223.069091 230.036179 
L 225.687273 241.112641 
M 225.687273 241.112641 
L 228.305455 253.196054 
M 228.305455 253.196054 
L 230.923636 266.286418 
M 230.923636 266.286418 
L 233.541818 280.383734 
M 233.541818 280.383734 
L 236.16 295.488 
M 236.16 295.488 
L 238.778182 295.488 
M 238.778182 295.488 
L 241.396364 295.488 
M 241.396364 295.488 
L 244.014545 295.488 
M 244.014545 295.488 
L 246.632727 295.488 
M 246.632727 295.488 
L 249.250909 295.488 
M 249.250909 295.488 
L 251.869091 295.488 
M 251.869091 295.488 
L 254.487273 295.488 
M 254.487273 295.488 
L 257.105455 295.488 
M 257.105455 295.488 
L 259.723636 295.488 
M 259.723636 295.488 
L 262.341818 295.488 
M 262.341818 295.488 
L 264.96 295.488 
M 264.96 295.488 
L 267.578182 295.488 
M 267.578182 295.488 
L 270.196364 295.488 
M 270.196364 295.488 
L 272.814545 295.488 
M 272.814545 295.488 
L 275.432727 295.488 
M 275.432727 295.488 
L 278.050909 295.488 
M 278.050909 295.488 
L 280.669091 295.488 
M 280.669091 295.488 
L 283.287273 295.488 
M 283.287273 295.488 
L 285.905455 295.488 
M 285.905455 295.488 
L 288.523636 295.488 
M 288.523636 295.488 
L 291.141818 295.488 
M 291.141818 295.488 
L 293.76 295.488 
M 293.76 295.488 
L 296.378182 295.488 
M 296.378182 295.488 
L 298.996364 295.488 
M 298.996364 295.488 
L 301.614545 295.488 
M 301.614545 295.488 
L 304.232727 295.488 
M 304.232727 295.488 
L 306.850909 295.488 
M 306.850909 295.488 
L 309.469091 295.488 
M 309.469091 295.488 
L 312.087273 295.488 
M 312.087273 295.488 
L 314.705455 295.488 
M 314.705455 295.488 
L 317.323636 295.488 
M 317.323636 295.488 
L 319.941818 295.488 
M 319.941818 295.488 
L 322.56 295.488 
M 322.56 295.488 
L 325.178182 295.488 
M 325.178182 295.488 
L 327.796364 295.488 
M 327.796364 295.488 
L 330.414545 295.488 
M 330.414545 295.488 
L 333.032727 295.488 
M 333.032727 295.488 
L 335.650909 295.488 
M 335.650909 295.488 
L 338.269091 295.488 
M 338.269091 295.488 
L 340.887273 295.488 
M 340.887273 295.488 
L 343.505455 295.488 
M 343.505455 295.488 
L 346.123636 295.488 
M 346.123636 295.488 
L 348.741818 295.488 
M 348.741818 295.488 
L 351.36 295.488 
M 351.36 295.488 
L 353.978182 295.488 
M 353.978182 295.488 
L 356.596364 295.488 
M 356.596364 295.488 
L 359.214545 295.488 
M 359.214545 295.488 
L 361.832727 295.488 
M 361.832727 295.488 
L 364.450909 295.488 
M 364.450909 295.488 
L 367.069091 295.488 
M 367.069091 295.488 
L 369.687273 295.488 
M 369.687273 295.488 
L 372.305455 295.488 
M 372.305455 295.488 
L 374.923636 295.488 
M 374.923636 295.488 
L 377.541818 295.488 
M 377.541818 295.488 
L 380.16 295.488 
M 380.16 295.488 
L 382.778182 295.488 
M 382.778182 295.488 
L 385.396364 295.488 
M 385.396364 295.488 
L 388.014545 295.488 
M 388.014545 295.488 
L 390.632727 295.488 
M 390.632727 295.488 
L 393.250909 295.488 
M 393.250909 295.488 
L 395.869091 295.488 
M 395.869091 295.488 
L 398.487273 295.488 
L 398.487273 295.488 
" clip-path="url(#pf505eaf84c)" style="fill: none; stroke: #d62728; stroke-width: 1.5; stroke-linecap: square"/>
   </g>
   <g id="line2d_16">
    <path d="M 73.832727 295.488 
L 76.450909 295.488 
M 76.450909 295.488 
L 79.069091 295.488 
M 79.069091 295.488 
L 81.687273 295.488 
M 81.687273 295.488 
L 84.305455 295.488 
M 84.305455 295.488 
L 86.923636 295.488 
M 86.923636 295.488 
L 89.541818 295.488 
M 89.541818 295.488 
L 92.16 295.488 
M 92.16 295.488 
L 94.778182 295.488 
M 94.778182 295.488 
L 97.396364 295.488 
M 97.396364 295.488 
L 100.014545 295.488 
M 100.014545 295.488 
L 102.632727 295.488 
M 102.632727 295.488 
L 105.250909 295.488 
M 105.250909 295.488 
L 107.869091 295.488 
M 107.869091 295.488 
L 110.487273 295.488 
M 110.487273 295.488 
L 113.105455 295.488 
M 113.105455 295.488 
L 115.723636 295.488 
M 115.723636 295.488 
L 118.341818 295.488 
M 118.341818 295.488 
L 120.96 295.488 
M 120.96 295.488 
L 123.578182 295.488 
M 123.578182 295.488 
L 126.196364 295.488 
M 126.196364 295.488 
L 128.814545 295.488 
M 128.814545 295.488 
L 131.432727 295.488 
M 131.432727 295.488 
L 134.050909 295.488 
M 134.050909 295.488 
L 136.669091 295.488 
M 136.669091 295.488 
L 139.287273 295.488 
M 139.287273 295.488 
L 141.905455 295.488 
M 141.905455 295.488 
L 144.523636 295.488 
M 144.523636 295.488 
L 147.141818 295.488 
M 147.141818 295.488 
L 149.76 295.488 
M 149.76 295.488 
L 152.378182 295.488 
M 152.378182 295.488 
L 154.996364 295.488 
M 154.996364 295.488 
L 157.614545 295.236262 
M 157.614545 295.236262 
L 160.232727 294.481049 
M 160.232727 294.481049 
L 162.850909 293.22236 
M 162.850909 293.22236 
L 165.469091 291.460196 
M 165.469091 291.460196 
L 168.087273 289.194556 
M 168.087273 289.194556 
L 170.705455 286.42544 
M 170.705455 286.42544 
L 173.323636 283.152849 
M 173.323636 283.152849 
L 175.941818 279.376783 
M 175.941818 279.376783 
L 178.56 275.09724 
M 178.56 275.09724 
L 181.178182 270.314223 
M 181.178182 270.314223 
L 183.796364 265.027729 
M 183.796364 265.027729 
L 186.414545 259.237761 
M 186.414545 259.237761 
L 189.032727 252.944316 
M 189.032727 252.944316 
L 191.650909 246.147396 
M 191.650909 246.147396 
L 194.269091 238.847001 
M 194.269091 238.847001 
L 196.887273 231.04313 
M 196.887273 231.04313 
L 199.505455 222.735784 
M 199.505455 222.735784 
L 202.123636 213.924961 
M 202.123636 213.924961 
L 204.741818 204.610664 
M 204.741818 204.610664 
L 207.36 194.792891 
M 207.36 194.792891 
L 209.978182 184.471642 
M 209.978182 184.471642 
L 212.596364 173.646918 
M 212.596364 173.646918 
L 215.214545 162.318718 
M 215.214545 162.318718 
L 217.832727 150.487043 
M 217.832727 150.487043 
L 220.450909 138.151892 
M 220.450909 138.151892 
L 223.069091 125.313265 
M 223.069091 125.313265 
L 225.687273 111.971163 
M 225.687273 111.971163 
L 228.305455 98.125586 
M 228.305455 98.125586 
L 230.923636 83.776533 
M 230.923636 83.776533 
L 233.541818 68.924004 
M 233.541818 68.924004 
L 236.16 53.568 
M 236.16 53.568 
L 238.778182 68.924004 
M 238.778182 68.924004 
L 241.396364 83.776533 
M 241.396364 83.776533 
L 244.014545 98.125586 
M 244.014545 98.125586 
L 246.632727 111.971163 
M 246.632727 111.971163 
L 249.250909 125.313265 
M 249.250909 125.313265 
L 251.869091 138.151892 
M 251.869091 138.151892 
L 254.487273 150.487043 
M 254.487273 150.487043 
L 257.105455 162.318718 
M 257.105455 162.318718 
L 259.723636 173.646918 
M 259.723636 173.646918 
L 262.341818 184.471642 
M 262.341818 184.471642 
L 264.96 194.792891 
M 264.96 194.792891 
L 267.578182 204.610664 
M 267.578182 204.610664 
L 270.196364 213.924961 
M 270.196364 213.924961 
L 272.814545 222.735784 
M 272.814545 222.735784 
L 275.432727 231.04313 
M 275.432727 231.04313 
L 278.050909 238.847001 
M 278.050909 238.847001 
L 280.669091 246.147396 
M 280.669091 246.147396 
L 283.287273 252.944316 
M 283.287273 252.944316 
L 285.905455 259.237761 
M 285.905455 259.237761 
L 288.523636 265.027729 
M 288.523636 265.027729 
L 291.141818 270.314223 
M 291.141818 270.314223 
L 293.76 275.09724 
M 293.76 275.09724 
L 296.378182 279.376783 
M 296.378182 279.376783 
L 298.996364 283.152849 
M 298.996364 283.152849 
L 301.614545 286.42544 
M 301.614545 286.42544 
L 304.232727 289.194556 
M 304.232727 289.194556 
L 306.850909 291.460196 
M 306.850909 291.460196 
L 309.469091 293.22236 
M 309.469091 293.22236 
L 312.087273 294.481049 
M 312.087273 294.481049 
L 314.705455 295.236262 
M 314.705455 295.236262 
L 317.323636 295.488 
M 317.323636 295.488 
L 319.941818 295.488 
M 319.941818 295.488 
L 322.56 295.488 
M 322.56 295.488 
L 325.178182 295.488 
M 325.178182 295.488 
L 327.796364 295.488 
M 327.796364 295.488 
L 330.414545 295.488 
M 330.414545 295.488 
L 333.032727 295.488 
M 333.032727 295.488 
L 335.650909 295.488 
M 335.650909 295.488 
L 338.269091 295.488 
M 338.269091 295.488 
L 340.887273 295.488 
M 340.887273 295.488 
L 343.505455 295.488 
M 343.505455 295.488 
L 346.123636 295.488 
M 346.123636 295.488 
L 348.741818 295.488 
M 348.741818 295.488 
L 351.36 295.488 
M 351.36 295.488 
L 353.978182 295.488 
M 353.978182 295.488 
L 356.596364 295.488 
M 356.596364 295.488 
L 359.214545 295.488 
M 359.214545 295.488 
L 361.832727 295.488 
M 361.832727 295.488 
L 364.450909 295.488 
M 364.450909 295.488 
L 367.069091 295.488 
M 367.069091 295.488 
L 369.687273 295.488 
M 369.687273 295.488 
L 372.305455 295.488 
M 372.305455 295.488 
L 374.923636 295.488 
M 374.923636 295.488 
L 377.541818 295.488 
M 377.541818 295.488 
L 380.16 295.488 
M 380.16 295.488 
L 382.778182 295.488 
M 382.778182 295.488 
L 385.396364 295.488 
M 385.396364 295.488 
L 388.014545 295.488 
M 388.014545 295.488 
L 390.632727 295.488 
M 390.632727 295.488 
L 393.250909 295.488 
M 393.250909 295.488 
L 395.869091 295.488 
M 395.869091 295.488 
L 398.487273 295.488 
L 398.487273 295.488 
" clip-path="url(#pf505eaf84c)" style="fill: none; stroke: #9467bd; stroke-width: 1.5; stroke-linecap: square"/>
   </g>
   <g id="line2d_17">
    <path d="M 73.832727 295.488 
L 76.450909 295.488 
M 76.450909 295.488 
L 79.069091 295.488 
M 79.069091 295.488 
L 81.687273 295.488 
M 81.687273 295.488 
L 84.305455 295.488 
M 84.305455 295.488 
L 86.923636 295.488 
M 86.923636 295.488 
L 89.541818 295.488 
M 89.541818 295.488 
L 92.16 295.488 
M 92.16 295.488 
L 94.778182 295.488 
M 94.778182 295.488 
L 97.396364 295.488 
M 97.396364 295.488 
L 100.014545 295.488 
M 100.014545 295.488 
L 102.632727 295.488 
M 102.632727 295.488 
L 105.250909 295.488 
M 105.250909 295.488 
L 107.869091 295.488 
M 107.869091 295.488 
L 110.487273 295.488 
M 110.487273 295.488 
L 113.105455 295.488 
M 113.105455 295.488 
L 115.723636 295.488 
M 115.723636 295.488 
L 118.341818 295.488 
M 118.341818 295.488 
L 120.96 295.488 
M 120.96 295.488 
L 123.578182 295.488 
M 123.578182 295.488 
L 126.196364 295.488 
M 126.196364 295.488 
L 128.814545 295.488 
M 128.814545 295.488 
L 131.432727 295.488 
M 131.432727 295.488 
L 134.050909 295.488 
M 134.050909 295.488 
L 136.669091 295.488 
M 136.669091 295.488 
L 139.287273 295.488 
M 139.287273 295.488 
L 141.905455 295.488 
M 141.905455 295.488 
L 144.523636 295.488 
M 144.523636 295.488 
L 147.141818 295.488 
M 147.141818 295.488 
L 149.76 295.488 
M 149.76 295.488 
L 152.378182 295.488 
M 152.378182 295.488 
L 154.996364 295.488 
M 154.996364 295.488 
L 157.614545 295.488 
M 157.614545 295.488 
L 160.232727 295.488 
M 160.232727 295.488 
L 162.850909 295.488 
M 162.850909 295.488 
L 165.469091 295.488 
M 165.469091 295.488 
L 168.087273 295.488 
M 168.087273 295.488 
L 170.705455 295.488 
M 170.705455 295.488 
L 173.323636 295.488 
M 173.323636 295.488 
L 175.941818 295.488 
M 175.941818 295.488 
L 178.56 295.488 
M 178.56 295.488 
L 181.178182 295.488 
M 181.178182 295.488 
L 183.796364 295.488 
M 183.796364 295.488 
L 186.414545 295.488 
M 186.414545 295.488 
L 189.032727 295.488 
M 189.032727 295.488 
L 191.650909 295.488 
M 191.650909 295.488 
L 194.269091 295.488 
M 194.269091 295.488 
L 196.887273 295.488 
M 196.887273 295.488 
L 199.505455 295.488 
M 199.505455 295.488 
L 202.123636 295.488 
M 202.123636 295.488 
L 204.741818 295.488 
M 204.741818 295.488 
L 207.36 295.488 
M 207.36 295.488 
L 209.978182 295.488 
M 209.978182 295.488 
L 212.596364 295.488 
M 212.596364 295.488 
L 215.214545 295.488 
M 215.214545 295.488 
L 217.832727 295.488 
M 217.832727 295.488 
L 220.450909 295.488 
M 220.450909 295.488 
L 223.069091 295.488 
M 223.069091 295.488 
L 225.687273 295.488 
M 225.687273 295.488 
L 228.305455 295.488 
M 228.305455 295.488 
L 230.923636 295.488 
M 230.923636 295.488 
L 233.541818 295.488 
M 233.541818 295.488 
L 236.16 295.488 
M 236.16 295.488 
L 238.778182 280.383734 
M 238.778182 280.383734 
L 241.396364 266.286418 
M 241.396364 266.286418 
L 244.014545 253.196054 
M 244.014545 253.196054 
L 246.632727 241.112641 
M 246.632727 241.112641 
L 249.250909 230.036179 
M 249.250909 230.036179 
L 251.869091 219.966668 
M 251.869091 219.966668 
L 254.487273 210.904108 
M 254.487273 210.904108 
L 257.105455 202.848499 
M 257.105455 202.848499 
L 259.723636 195.799842 
M 259.723636 195.799842 
L 262.341818 189.758135 
M 262.341818 189.758135 
L 264.96 184.72338 
M 264.96 184.72338 
L 267.578182 180.695575 
M 267.578182 180.695575 
L 270.196364 177.674722 
M 270.196364 177.674722 
L 272.814545 175.66082 
M 272.814545 175.66082 
L 275.432727 174.653869 
M 275.432727 174.653869 
L 278.050909 174.653869 
M 278.050909 174.653869 
L 280.669091 175.66082 
M 280.669091 175.66082 
L 283.287273 177.674722 
M 283.287273 177.674722 
L 285.905455 180.695575 
M 285.905455 180.695575 
L 288.523636 184.72338 
M 288.523636 184.72338 
L 291.141818 189.758135 
M 291.141818 189.758135 
L 293.76 195.799842 
M 293.76 195.799842 
L 296.378182 202.848499 
M 296.378182 202.848499 
L 298.996364 210.904108 
M 298.996364 210.904108 
L 301.614545 219.966668 
M 301.614545 219.966668 
L 304.232727 230.036179 
M 304.232727 230.036179 
L 306.850909 241.112641 
M 306.850909 241.112641 
L 309.469091 253.196054 
M 309.469091 253.196054 
L 312.087273 266.286418 
M 312.087273 266.286418 
L 314.705455 280.383734 
M 314.705455 280.383734 
L 317.323636 295.488 
M 317.323636 295.488 
L 319.941818 295.488 
M 319.941818 295.488 
L 322.56 295.488 
M 322.56 295.488 
L 325.178182 295.488 
M 325.178182 295.488 
L 327.796364 295.488 
M 327.796364 295.488 
L 330.414545 295.488 
M 330.414545 295.488 
L 333.032727 295.488 
M 333.032727 295.488 
L 335.650909 295.488 
M 335.650909 295.488 
L 338.269091 295.488 
M 338.269091 295.488 
L 340.887273 295.488 
M 340.887273 295.488 
L 343.505455 295.488 
M 343.505455 295.488 
L 346.123636 295.488 
M 346.123636 295.488 
L 348.741818 295.488 
M 348.741818 295.488 
L 351.36 295.488 
M 351.36 295.488 
L 353.978182 295.488 
M 353.978182 295.488 
L 356.596364 295.488 
M 356.596364 295.488 
L 359.214545 295.488 
M 359.214545 295.488 
L 361.832727 295.488 
M 361.832727 295.488 
L 364.450909 295.488 
M 364.450909 295.488 
L 367.069091 295.488 
M 367.069091 295.488 
L 369.687273 295.488 
M 369.687273 295.488 
L 372.305455 295.488 
M 372.305455 295.488 
L 374.923636 295.488 
M 374.923636 295.488 
L 377.541818 295.488 
M 377.541818 295.488 
L 380.16 295.488 
M 380.16 295.488 
L 382.778182 295.488 
M 382.778182 295.488 
L 385.396364 295.488 
M 385.396364 295.488 
L 388.014545 295.488 
M 388.014545 295.488 
L 390.632727 295.488 
M 390.632727 295.488 
L 393.250909 295.488 
M 393.250909 295.488 
L 395.869091 295.488 
M 395.869091 295.488 
L 398.487273 295.488 
L 398.487273 295.488 
" clip-path="url(#pf505eaf84c)" style="fill: none; stroke: #8c564b; stroke-width: 1.5; stroke-linecap: square"/>
   </g>
   <g id="line2d_18">
    <path d="M 73.832727 295.488 
L 76.450909 295.488 
M 76.450909 295.488 
L 79.069091 295.488 
M 79.069091 295.488 
L 81.687273 295.488 
M 81.687273 295.488 
L 84.305455 295.488 
M 84.305455 295.488 
L 86.923636 295.488 
M 86.923636 295.488 
L 89.541818 295.488 
M 89.541818 295.488 
L 92.16 295.488 
M 92.16 295.488 
L 94.778182 295.488 
M 94.778182 295.488 
L 97.396364 295.488 
M 97.396364 295.488 
L 100.014545 295.488 
M 100.014545 295.488 
L 102.632727 295.488 
M 102.632727 295.488 
L 105.250909 295.488 
M 105.250909 295.488 
L 107.869091 295.488 
M 107.869091 295.488 
L 110.487273 295.488 
M 110.487273 295.488 
L 113.105455 295.488 
M 113.105455 295.488 
L 115.723636 295.488 
M 115.723636 295.488 
L 118.341818 295.488 
M 118.341818 295.488 
L 120.96 295.488 
M 120.96 295.488 
L 123.578182 295.488 
M 123.578182 295.488 
L 126.196364 295.488 
M 126.196364 295.488 
L 128.814545 295.488 
M 128.814545 295.488 
L 131.432727 295.488 
M 131.432727 295.488 
L 134.050909 295.488 
M 134.050909 295.488 
L 136.669091 295.488 
M 136.669091 295.488 
L 139.287273 295.488 
M 139.287273 295.488 
L 141.905455 295.488 
M 141.905455 295.488 
L 144.523636 295.488 
M 144.523636 295.488 
L 147.141818 295.488 
M 147.141818 295.488 
L 149.76 295.488 
M 149.76 295.488 
L 152.378182 295.488 
M 152.378182 295.488 
L 154.996364 295.488 
M 154.996364 295.488 
L 157.614545 295.488 
M 157.614545 295.488 
L 160.232727 295.488 
M 160.232727 295.488 
L 162.850909 295.488 
M 162.850909 295.488 
L 165.469091 295.488 
M 165.469091 295.488 
L 168.087273 295.488 
M 168.087273 295.488 
L 170.705455 295.488 
M 170.705455 295.488 
L 173.323636 295.488 
M 173.323636 295.488 
L 175.941818 295.488 
M 175.941818 295.488 
L 178.56 295.488 
M 178.56 295.488 
L 181.178182 295.488 
M 181.178182 295.488 
L 183.796364 295.488 
M 183.796364 295.488 
L 186.414545 295.488 
M 186.414545 295.488 
L 189.032727 295.488 
M 189.032727 295.488 
L 191.650909 295.488 
M 191.650909 295.488 
L 194.269091 295.488 
M 194.269091 295.488 
L 196.887273 295.488 
M 196.887273 295.488 
L 199.505455 295.488 
M 199.505455 295.488 
L 202.123636 295.488 
M 202.123636 295.488 
L 204.741818 295.488 
M 204.741818 295.488 
L 207.36 295.488 
M 207.36 295.488 
L 209.978182 295.488 
M 209.978182 295.488 
L 212.596364 295.488 
M 212.596364 295.488 
L 215.214545 295.488 
M 215.214545 295.488 
L 217.832727 295.488 
M 217.832727 295.488 
L 220.450909 295.488 
M 220.450909 295.488 
L 223.069091 295.488 
M 223.069091 295.488 
L 225.687273 295.488 
M 225.687273 295.488 
L 228.305455 295.488 
M 228.305455 295.488 
L 230.923636 295.488 
M 230.923636 295.488 
L 233.541818 295.488 
M 233.541818 295.488 
L 236.16 295.488 
M 236.16 295.488 
L 238.778182 295.236262 
M 238.778182 295.236262 
L 241.396364 294.481049 
M 241.396364 294.481049 
L 244.014545 293.22236 
M 244.014545 293.22236 
L 246.632727 291.460196 
M 246.632727 291.460196 
L 249.250909 289.194556 
M 249.250909 289.194556 
L 251.869091 286.42544 
M 251.869091 286.42544 
L 254.487273 283.152849 
M 254.487273 283.152849 
L 257.105455 279.376783 
M 257.105455 279.376783 
L 259.723636 275.09724 
M 259.723636 275.09724 
L 262.341818 270.314223 
M 262.341818 270.314223 
L 264.96 265.027729 
M 264.96 265.027729 
L 267.578182 259.237761 
M 267.578182 259.237761 
L 270.196364 252.944316 
M 270.196364 252.944316 
L 272.814545 246.147396 
M 272.814545 246.147396 
L 275.432727 238.847001 
M 275.432727 238.847001 
L 278.050909 231.04313 
M 278.050909 231.04313 
L 280.669091 222.735784 
M 280.669091 222.735784 
L 283.287273 213.924961 
M 283.287273 213.924961 
L 285.905455 204.610664 
M 285.905455 204.610664 
L 288.523636 194.792891 
M 288.523636 194.792891 
L 291.141818 184.471642 
M 291.141818 184.471642 
L 293.76 173.646918 
M 293.76 173.646918 
L 296.378182 162.318718 
M 296.378182 162.318718 
L 298.996364 150.487043 
M 298.996364 150.487043 
L 301.614545 138.151892 
M 301.614545 138.151892 
L 304.232727 125.313265 
M 304.232727 125.313265 
L 306.850909 111.971163 
M 306.850909 111.971163 
L 309.469091 98.125586 
M 309.469091 98.125586 
L 312.087273 83.776533 
M 312.087273 83.776533 
L 314.705455 68.924004 
M 314.705455 68.924004 
L 317.323636 53.568 
M 317.323636 53.568 
L 319.941818 68.924004 
M 319.941818 68.924004 
L 322.56 83.776533 
M 322.56 83.776533 
L 325.178182 98.125586 
M 325.178182 98.125586 
L 327.796364 111.971163 
M 327.796364 111.971163 
L 330.414545 125.313265 
M 330.414545 125.313265 
L 333.032727 138.151892 
M 333.032727 138.151892 
L 335.650909 150.487043 
M 335.650909 150.487043 
L 338.269091 162.318718 
M 338.269091 162.318718 
L 340.887273 173.646918 
M 340.887273 173.646918 
L 343.505455 184.471642 
M 343.505455 184.471642 
L 346.123636 194.792891 
M 346.123636 194.792891 
L 348.741818 204.610664 
M 348.741818 204.610664 
L 351.36 213.924961 
M 351.36 213.924961 
L 353.978182 222.735784 
M 353.978182 222.735784 
L 356.596364 231.04313 
M 356.596364 231.04313 
L 359.214545 238.847001 
M 359.214545 238.847001 
L 361.832727 246.147396 
M 361.832727 246.147396 
L 364.450909 252.944316 
M 364.450909 252.944316 
L 367.069091 259.237761 
M 367.069091 259.237761 
L 369.687273 265.027729 
M 369.687273 265.027729 
L 372.305455 270.314223 
M 372.305455 270.314223 
L 374.923636 275.09724 
M 374.923636 275.09724 
L 377.541818 279.376783 
M 377.541818 279.376783 
L 380.16 283.152849 
M 380.16 283.152849 
L 382.778182 286.42544 
M 382.778182 286.42544 
L 385.396364 289.194556 
M 385.396364 289.194556 
L 388.014545 291.460196 
M 388.014545 291.460196 
L 390.632727 293.22236 
M 390.632727 293.22236 
L 393.250909 294.481049 
M 393.250909 294.481049 
L 395.869091 295.236262 
M 395.869091 295.236262 
L 398.487273 295.488 
L 398.487273 295.488 
" clip-path="url(#pf505eaf84c)" style="fill: none; stroke: #e377c2; stroke-width: 1.5; stroke-linecap: square"/>
   </g>
   <g id="line2d_19">
    <path d="M 73.832727 295.488 
L 76.450909 295.488 
M 76.450909 295.488 
L 79.069091 295.488 
M 79.069091 295.488 
L 81.687273 295.488 
M 81.687273 295.488 
L 84.305455 295.488 
M 84.305455 295.488 
L 86.923636 295.488 
M 86.923636 295.488 
L 89.541818 295.488 
M 89.541818 295.488 
L 92.16 295.488 
M 92.16 295.488 
L 94.778182 295.488 
M 94.778182 295.488 
L 97.396364 295.488 
M 97.396364 295.488 
L 100.014545 295.488 
M 100.014545 295.488 
L 102.632727 295.488 
M 102.632727 295.488 
L 105.250909 295.488 
M 105.250909 295.488 
L 107.869091 295.488 
M 107.869091 295.488 
L 110.487273 295.488 
M 110.487273 295.488 
L 113.105455 295.488 
M 113.105455 295.488 
L 115.723636 295.488 
M 115.723636 295.488 
L 118.341818 295.488 
M 118.341818 295.488 
L 120.96 295.488 
M 120.96 295.488 
L 123.578182 295.488 
M 123.578182 295.488 
L 126.196364 295.488 
M 126.196364 295.488 
L 128.814545 295.488 
M 128.814545 295.488 
L 131.432727 295.488 
M 131.432727 295.488 
L 134.050909 295.488 
M 134.050909 295.488 
L 136.669091 295.488 
M 136.669091 295.488 
L 139.287273 295.488 
M 139.287273 295.488 
L 141.905455 295.488 
M 141.905455 295.488 
L 144.523636 295.488 
M 144.523636 295.488 
L 147.141818 295.488 
M 147.141818 295.488 
L 149.76 295.488 
M 149.76 295.488 
L 152.378182 295.488 
M 152.378182 295.488 
L 154.996364 295.488 
M 154.996364 295.488 
L 157.614545 295.488 
M 157.614545 295.488 
L 160.232727 295.488 
M 160.232727 295.488 
L 162.850909 295.488 
M 162.850909 295.488 
L 165.469091 295.488 
M 165.469091 295.488 
L 168.087273 295.488 
M 168.087273 295.488 
L 170.705455 295.488 
M 170.705455 295.488 
L 173.323636 295.488 
M 173.323636 295.488 
L 175.941818 295.488 
M 175.941818 295.488 
L 178.56 295.488 
M 178.56 295.488 
L 181.178182 295.488 
M 181.178182 295.488 
L 183.796364 295.488 
M 183.796364 295.488 
L 186.414545 295.488 
M 186.414545 295.488 
L 189.032727 295.488 
M 189.032727 295.488 
L 191.650909 295.488 
M 191.650909 295.488 
L 194.269091 295.488 
M 194.269091 295.488 
L 196.887273 295.488 
M 196.887273 295.488 
L 199.505455 295.488 
M 199.505455 295.488 
L 202.123636 295.488 
M 202.123636 295.488 
L 204.741818 295.488 
M 204.741818 295.488 
L 207.36 295.488 
M 207.36 295.488 
L 209.978182 295.488 
M 209.978182 295.488 
L 212.596364 295.488 
M 212.596364 295.488 
L 215.214545 295.488 
M 215.214545 295.488 
L 217.832727 295.488 
M 217.832727 295.488 
L 220.450909 295.488 
M 220.450909 295.488 
L 223.069091 295.488 
M 223.069091 295.488 
L 225.687273 295.488 
M 225.687273 295.488 
L 228.305455 295.488 
M 228.305455 295.488 
L 230.923636 295.488 
M 230.923636 295.488 
L 233.541818 295.488 
M 233.541818 295.488 
L 236.16 295.488 
M 236.16 295.488 
L 238.778182 295.488 
M 238.778182 295.488 
L 241.396364 295.488 
M 241.396364 295.488 
L 244.014545 295.488 
M 244.014545 295.488 
L 246.632727 295.488 
M 246.632727 295.488 
L 249.250909 295.488 
M 249.250909 295.488 
L 251.869091 295.488 
M 251.869091 295.488 
L 254.487273 295.488 
M 254.487273 295.488 
L 257.105455 295.488 
M 257.105455 295.488 
L 259.723636 295.488 
M 259.723636 295.488 
L 262.341818 295.488 
M 262.341818 295.488 
L 264.96 295.488 
M 264.96 295.488 
L 267.578182 295.488 
M 267.578182 295.488 
L 270.196364 295.488 
M 270.196364 295.488 
L 272.814545 295.488 
M 272.814545 295.488 
L 275.432727 295.488 
M 275.432727 295.488 
L 278.050909 295.488 
M 278.050909 295.488 
L 280.669091 295.488 
M 280.669091 295.488 
L 283.287273 295.488 
M 283.287273 295.488 
L 285.905455 295.488 
M 285.905455 295.488 
L 288.523636 295.488 
M 288.523636 295.488 
L 291.141818 295.488 
M 291.141818 295.488 
L 293.76 295.488 
M 293.76 295.488 
L 296.378182 295.488 
M 296.378182 295.488 
L 298.996364 295.488 
M 298.996364 295.488 
L 301.614545 295.488 
M 301.614545 295.488 
L 304.232727 295.488 
M 304.232727 295.488 
L 306.850909 295.488 
M 306.850909 295.488 
L 309.469091 295.488 
M 309.469091 295.488 
L 312.087273 295.488 
M 312.087273 295.488 
L 314.705455 295.488 
M 314.705455 295.488 
L 317.323636 295.488 
M 317.323636 295.488 
L 319.941818 280.383734 
M 319.941818 280.383734 
L 322.56 266.286418 
M 322.56 266.286418 
L 325.178182 253.196054 
M 325.178182 253.196054 
L 327.796364 241.112641 
M 327.796364 241.112641 
L 330.414545 230.036179 
M 330.414545 230.036179 
L 333.032727 219.966668 
M 333.032727 219.966668 
L 335.650909 210.904108 
M 335.650909 210.904108 
L 338.269091 202.848499 
M 338.269091 202.848499 
L 340.887273 195.799842 
M 340.887273 195.799842 
L 343.505455 189.758135 
M 343.505455 189.758135 
L 346.123636 184.72338 
M 346.123636 184.72338 
L 348.741818 180.695575 
M 348.741818 180.695575 
L 351.36 177.674722 
M 351.36 177.674722 
L 353.978182 175.66082 
M 353.978182 175.66082 
L 356.596364 174.653869 
M 356.596364 174.653869 
L 359.214545 174.653869 
M 359.214545 174.653869 
L 361.832727 175.66082 
M 361.832727 175.66082 
L 364.450909 177.674722 
M 364.450909 177.674722 
L 367.069091 180.695575 
M 367.069091 180.695575 
L 369.687273 184.72338 
M 369.687273 184.72338 
L 372.305455 189.758135 
M 372.305455 189.758135 
L 374.923636 195.799842 
M 374.923636 195.799842 
L 377.541818 202.848499 
M 377.541818 202.848499 
L 380.16 210.904108 
M 380.16 210.904108 
L 382.778182 219.966668 
M 382.778182 219.966668 
L 385.396364 230.036179 
M 385.396364 230.036179 
L 388.014545 241.112641 
M 388.014545 241.112641 
L 390.632727 253.196054 
M 390.632727 253.196054 
L 393.250909 266.286418 
M 393.250909 266.286418 
L 395.869091 280.383734 
M 395.869091 280.383734 
L 398.487273 295.488 
L 398.487273 295.488 
" clip-path="url(#pf505eaf84c)" style="fill: none; stroke: #7f7f7f; stroke-width: 1.5; stroke-linecap: square"/>
   </g>
   <g id="line2d_20">
    <path d="M 73.832727 295.488 
L 76.450909 295.488 
M 76.450909 295.488 
L 79.069091 295.488 
M 79.069091 295.488 
L 81.687273 295.488 
M 81.687273 295.488 
L 84.305455 295.488 
M 84.305455 295.488 
L 86.923636 295.488 
M 86.923636 295.488 
L 89.541818 295.488 
M 89.541818 295.488 
L 92.16 295.488 
M 92.16 295.488 
L 94.778182 295.488 
M 94.778182 295.488 
L 97.396364 295.488 
M 97.396364 295.488 
L 100.014545 295.488 
M 100.014545 295.488 
L 102.632727 295.488 
M 102.632727 295.488 
L 105.250909 295.488 
M 105.250909 295.488 
L 107.869091 295.488 
M 107.869091 295.488 
L 110.487273 295.488 
M 110.487273 295.488 
L 113.105455 295.488 
M 113.105455 295.488 
L 115.723636 295.488 
M 115.723636 295.488 
L 118.341818 295.488 
M 118.341818 295.488 
L 120.96 295.488 
M 120.96 295.488 
L 123.578182 295.488 
M 123.578182 295.488 
L 126.196364 295.488 
M 126.196364 295.488 
L 128.814545 295.488 
M 128.814545 295.488 
L 131.432727 295.488 
M 131.432727 295.488 
L 134.050909 295.488 
M 134.050909 295.488 
L 136.669091 295.488 
M 136.669091 295.488 
L 139.287273 295.488 
M 139.287273 295.488 
L 141.905455 295.488 
M 141.905455 295.488 
L 144.523636 295.488 
M 144.523636 295.488 
L 147.141818 295.488 
M 147.141818 295.488 
L 149.76 295.488 
M 149.76 295.488 
L 152.378182 295.488 
M 152.378182 295.488 
L 154.996364 295.488 
M 154.996364 295.488 
L 157.614545 295.488 
M 157.614545 295.488 
L 160.232727 295.488 
M 160.232727 295.488 
L 162.850909 295.488 
M 162.850909 295.488 
L 165.469091 295.488 
M 165.469091 295.488 
L 168.087273 295.488 
M 168.087273 295.488 
L 170.705455 295.488 
M 170.705455 295.488 
L 173.323636 295.488 
M 173.323636 295.488 
L 175.941818 295.488 
M 175.941818 295.488 
L 178.56 295.488 
M 178.56 295.488 
L 181.178182 295.488 
M 181.178182 295.488 
L 183.796364 295.488 
M 183.796364 295.488 
L 186.414545 295.488 
M 186.414545 295.488 
L 189.032727 295.488 
M 189.032727 295.488 
L 191.650909 295.488 
M 191.650909 295.488 
L 194.269091 295.488 
M 194.269091 295.488 
L 196.887273 295.488 
M 196.887273 295.488 
L 199.505455 295.488 
M 199.505455 295.488 
L 202.123636 295.488 
M 202.123636 295.488 
L 204.741818 295.488 
M 204.741818 295.488 
L 207.36 295.488 
M 207.36 295.488 
L 209.978182 295.488 
M 209.978182 295.488 
L 212.596364 295.488 
M 212.596364 295.488 
L 215.214545 295.488 
M 215.214545 295.488 
L 217.832727 295.488 
M 217.832727 295.488 
L 220.450909 295.488 
M 220.450909 295.488 
L 223.069091 295.488 
M 223.069091 295.488 
L 225.687273 295.488 
M 225.687273 295.488 
L 228.305455 295.488 
M 228.305455 295.488 
L 230.923636 295.488 
M 230.923636 295.488 
L 233.541818 295.488 
M 233.541818 295.488 
L 236.16 295.488 
M 236.16 295.488 
L 238.778182 295.488 
M 238.778182 295.488 
L 241.396364 295.488 
M 241.396364 295.488 
L 244.014545 295.488 
M 244.014545 295.488 
L 246.632727 295.488 
M 246.632727 295.488 
L 249.250909 295.488 
M 249.250909 295.488 
L 251.869091 295.488 
M 251.869091 295.488 
L 254.487273 295.488 
M 254.487273 295.488 
L 257.105455 295.488 
M 257.105455 295.488 
L 259.723636 295.488 
M 259.723636 295.488 
L 262.341818 295.488 
M 262.341818 295.488 
L 264.96 295.488 
M 264.96 295.488 
L 267.578182 295.488 
M 267.578182 295.488 
L 270.196364 295.488 
M 270.196364 295.488 
L 272.814545 295.488 
M 272.814545 295.488 
L 275.432727 295.488 
M 275.432727 295.488 
L 278.050909 295.488 
M 278.050909 295.488 
L 280.669091 295.488 
M 280.669091 295.488 
L 283.287273 295.488 
M 283.287273 295.488 
L 285.905455 295.488 
M 285.905455 295.488 
L 288.523636 295.488 
M 288.523636 295.488 
L 291.141818 295.488 
M 291.141818 295.488 
L 293.76 295.488 
M 293.76 295.488 
L 296.378182 295.488 
M 296.378182 295.488 
L 298.996364 295.488 
M 298.996364 295.488 
L 301.614545 295.488 
M 301.614545 295.488 
L 304.232727 295.488 
M 304.232727 295.488 
L 306.850909 295.488 
M 306.850909 295.488 
L 309.469091 295.488 
M 309.469091 295.488 
L 312.087273 295.488 
M 312.087273 295.488 
L 314.705455 295.488 
M 314.705455 295.488 
L 317.323636 295.488 
M 317.323636 295.488 
L 319.941818 295.236262 
M 319.941818 295.236262 
L 322.56 294.481049 
M 322.56 294.481049 
L 325.178182 293.22236 
M 325.178182 293.22236 
L 327.796364 291.460196 
M 327.796364 291.460196 
L 330.414545 289.194556 
M 330.414545 289.194556 
L 333.032727 286.42544 
M 333.032727 286.42544 
L 335.650909 283.152849 
M 335.650909 283.152849 
L 338.269091 279.376783 
M 338.269091 279.376783 
L 340.887273 275.09724 
M 340.887273 275.09724 
L 343.505455 270.314223 
M 343.505455 270.314223 
L 346.123636 265.027729 
M 346.123636 265.027729 
L 348.741818 259.237761 
M 348.741818 259.237761 
L 351.36 252.944316 
M 351.36 252.944316 
L 353.978182 246.147396 
M 353.978182 246.147396 
L 356.596364 238.847001 
M 356.596364 238.847001 
L 359.214545 231.04313 
M 359.214545 231.04313 
L 361.832727 222.735784 
M 361.832727 222.735784 
L 364.450909 213.924961 
M 364.450909 213.924961 
L 367.069091 204.610664 
M 367.069091 204.610664 
L 369.687273 194.792891 
M 369.687273 194.792891 
L 372.305455 184.471642 
M 372.305455 184.471642 
L 374.923636 173.646918 
M 374.923636 173.646918 
L 377.541818 162.318718 
M 377.541818 162.318718 
L 380.16 150.487043 
M 380.16 150.487043 
L 382.778182 138.151892 
M 382.778182 138.151892 
L 385.396364 125.313265 
M 385.396364 125.313265 
L 388.014545 111.971163 
M 388.014545 111.971163 
L 390.632727 98.125586 
M 390.632727 98.125586 
L 393.250909 83.776533 
M 393.250909 83.776533 
L 395.869091 68.924004 
M 395.869091 68.924004 
L 398.487273 53.568 
L 398.487273 53.568 
" clip-path="url(#pf505eaf84c)" style="fill: none; stroke: #bcbd22; stroke-width: 1.5; stroke-linecap: square"/>
   </g>
   <g id="patch_3">
    <path d="M 57.6 307.584 
L 57.6 41.472 
" style="fill: none; stroke: #000000; stroke-width: 0.8; stroke-linejoin: miter; stroke-linecap: square"/>
   </g>
   <g id="patch_4">
    <path d="M 414.72 307.584 
L 414.72 41.472 
" style="fill: none; stroke: #000000; stroke-width: 0.8; stroke-linejoin: miter; stroke-linecap: square"/>
   </g>
   <g id="patch_5">
    <path d="M 57.6 307.584 
L 414.72 307.584 
" style="fill: none; stroke: #000000; stroke-width: 0.8; stroke-linejoin: miter; stroke-linecap: square"/>
   </g>
   <g id="patch_6">
    <path d="M 57.6 41.472 
L 414.72 41.472 
" style="fill: none; stroke: #000000; stroke-width: 0.8; stroke-linejoin: miter; stroke-linecap: square"/>
   </g>
  </g>
 </g>
 <defs>
  <clipPath id="pf505eaf84c">
   <rect x="57.6" y="41.472" width="357.12" height="266.112"/>
  </clipPath>
 </defs>
</svg>
