<?xml version="1.0" encoding="utf-8" standalone="no"?>
<!DOCTYPE svg PUBLIC "-//W3C//DTD SVG 1.1//EN"
  "http://www.w3.org/Graphics/SVG/1.1/DTD/svg11.dtd">
<svg xmlns:xlink="http://www.w3.org/1999/xlink" width="460.8pt" height="345.6pt" viewBox="0 0 460.8 345.6" xmlns="http://www.w3.org/2000/svg" version="1.1">
 <metadata>
  <rdf:RDF xmlns:dc="http://purl.org/dc/elements/1.1/" xmlns:cc="http://creativecommons.org/ns#" xmlns:rdf="http://www.w3.org/1999/02/22-rdf-syntax-ns#">
   <cc:Work>
    <dc:type rdf:resource="http://purl.org/dc/dcmitype/StillImage"/>
    <dc:format>image/svg+xml</dc:format>
    <dc:creator>
     <cc:Agent>
      <dc:title>Matplotlib v3.5.1, https://matplotlib.org/</dc:title>
     </cc:Agent>
    </dc:creator>
   </cc:Work>
  </rdf:RDF>
 </metadata>
 <defs>
  <style type="text/css">*{stroke-linejoin: round; stroke-linecap: butt}</style>
 </defs>
 <g id="figure_1">
  <g id="patch_1">
   <path d="M 0 345.6 
L 460.8 345.6 
L 460.8 0 
L 0 0 
z
" style="fill: #ffffff"/>
  </g>
  <g id="axes_1">
   <g id="patch_2">
    <path d="M 57.6 307.584 
L 414.72 307.584 
L 414.72 41.472 
L 57.6 41.472 
z
" style="fill: #ffffff"/>
   </g>
   <g id="matplotlib.axis_1">
    <g id="xtick_1">
     <g id="line2d_1">
      <defs>
       <path id="me54a3d5563" d="M 0 0 
L 0 3.5 
" style="stroke: #000000; stroke-width: 0.8"/>
      </defs>
      <g>
       <use xlink:href="#me54a3d5563" x="73.832727" y="307.584" style="stroke: #000000; stroke-width: 0.8"/>
      </g>
     </g>
     <g id="text_1">
      <!-- 0.00 -->
      <g transform="translate(62.699915 322.182437)scale(0.1 -0.1)">
       <defs>
        <path id="DejaVuSans-30" d="M 2034 4250 
Q 1547 4250 1301 3770 
Q 1056 3291 1056 2328 
Q 1056 1369 1301 889 
Q 1547 409 2034 409 
Q 2525 409 2770 889 
Q 3016 1369 3016 2328 
Q 3016 3291 2770 3770 
Q 2525 4250 2034 4250 
z
M 2034 4750 
Q 2819 4750 3233 4129 
Q 3647 3509 3647 2328 
Q 3647 1150 3233 529 
Q 2819 -91 2034 -91 
Q 1250 -91 836 529 
Q 422 1150 422 2328 
Q 422 3509 836 4129 
Q 1250 4750 2034 4750 
z
" transform="scale(0.015625)"/>
        <path id="DejaVuSans-2e" d="M 684 794 
L 1344 794 
L 1344 0 
L 684 0 
L 684 794 
z
" transform="scale(0.015625)"/>
       </defs>
       <use xlink:href="#DejaVuSans-30"/>
       <use xlink:href="#DejaVuSans-2e" x="63.623047"/>
       <use xlink:href="#DejaVuSans-30" x="95.410156"/>
       <use xlink:href="#DejaVuSans-30" x="159.033203"/>
      </g>
     </g>
    </g>
    <g id="xtick_2">
     <g id="line2d_2">
      <g>
       <use xlink:href="#me54a3d5563" x="154.996364" y="307.584" style="stroke: #000000; stroke-width: 0.8"/>
      </g>
     </g>
     <g id="text_2">
      <!-- 0.25 -->
      <g transform="translate(143.863551 322.182437)scale(0.1 -0.1)">
       <defs>
        <path id="DejaVuSans-32" d="M 1228 531 
L 3431 531 
L 3431 0 
L 469 0 
L 469 531 
Q 828 903 1448 1529 
Q 2069 2156 2228 2338 
Q 2531 2678 2651 2914 
Q 2772 3150 2772 3378 
Q 2772 3750 2511 3984 
Q 2250 4219 1831 4219 
Q 1534 4219 1204 4116 
Q 875 4013 500 3803 
L 500 4441 
Q 881 4594 1212 4672 
Q 1544 4750 1819 4750 
Q 2544 4750 2975 4387 
Q 3406 4025 3406 3419 
Q 3406 3131 3298 2873 
Q 3191 2616 2906 2266 
Q 2828 2175 2409 1742 
Q 1991 1309 1228 531 
z
" transform="scale(0.015625)"/>
        <path id="DejaVuSans-35" d="M 691 4666 
L 3169 4666 
L 3169 4134 
L 1269 4134 
L 1269 2991 
Q 1406 3038 1543 3061 
Q 1681 3084 1819 3084 
Q 2600 3084 3056 2656 
Q 3513 2228 3513 1497 
Q 3513 744 3044 326 
Q 2575 -91 1722 -91 
Q 1428 -91 1123 -41 
Q 819 9 494 109 
L 494 744 
Q 775 591 1075 516 
Q 1375 441 1709 441 
Q 2250 441 2565 725 
Q 2881 1009 2881 1497 
Q 2881 1984 2565 2268 
Q 2250 2553 1709 2553 
Q 1456 2553 1204 2497 
Q 953 2441 691 2322 
L 691 4666 
z
" transform="scale(0.015625)"/>
       </defs>
       <use xlink:href="#DejaVuSans-30"/>
       <use xlink:href="#DejaVuSans-2e" x="63.623047"/>
       <use xlink:href="#DejaVuSans-32" x="95.410156"/>
       <use xlink:href="#DejaVuSans-35" x="159.033203"/>
      </g>
     </g>
    </g>
    <g id="xtick_3">
     <g id="line2d_3">
      <g>
       <use xlink:href="#me54a3d5563" x="236.16" y="307.584" style="stroke: #000000; stroke-width: 0.8"/>
      </g>
     </g>
     <g id="text_3">
      <!-- 0.50 -->
      <g transform="translate(225.027187 322.182437)scale(0.1 -0.1)">
       <use xlink:href="#DejaVuSans-30"/>
       <use xlink:href="#DejaVuSans-2e" x="63.623047"/>
       <use xlink:href="#DejaVuSans-35" x="95.410156"/>
       <use xlink:href="#DejaVuSans-30" x="159.033203"/>
      </g>
     </g>
    </g>
    <g id="xtick_4">
     <g id="line2d_4">
      <g>
       <use xlink:href="#me54a3d5563" x="317.323636" y="307.584" style="stroke: #000000; stroke-width: 0.8"/>
      </g>
     </g>
     <g id="text_4">
      <!-- 0.75 -->
      <g transform="translate(306.190824 322.182437)scale(0.1 -0.1)">
       <defs>
        <path id="DejaVuSans-37" d="M 525 4666 
L 3525 4666 
L 3525 4397 
L 1831 0 
L 1172 0 
L 2766 4134 
L 525 4134 
L 525 4666 
z
" transform="scale(0.015625)"/>
       </defs>
       <use xlink:href="#DejaVuSans-30"/>
       <use xlink:href="#DejaVuSans-2e" x="63.623047"/>
       <use xlink:href="#DejaVuSans-37" x="95.410156"/>
       <use xlink:href="#DejaVuSans-35" x="159.033203"/>
      </g>
     </g>
    </g>
    <g id="xtick_5">
     <g id="line2d_5">
      <g>
       <use xlink:href="#me54a3d5563" x="398.487273" y="307.584" style="stroke: #000000; stroke-width: 0.8"/>
      </g>
     </g>
     <g id="text_5">
      <!-- 1.00 -->
      <g transform="translate(387.35446 322.182437)scale(0.1 -0.1)">
       <defs>
        <path id="DejaVuSans-31" d="M 794 531 
L 1825 531 
L 1825 4091 
L 703 3866 
L 703 4441 
L 1819 4666 
L 2450 4666 
L 2450 531 
L 3481 531 
L 3481 0 
L 794 0 
L 794 531 
z
" transform="scale(0.015625)"/>
       </defs>
       <use xlink:href="#DejaVuSans-31"/>
       <use xlink:href="#DejaVuSans-2e" x="63.623047"/>
       <use xlink:href="#DejaVuSans-30" x="95.410156"/>
       <use xlink:href="#DejaVuSans-30" x="159.033203"/>
      </g>
     </g>
    </g>
    <g id="text_6">
     <!-- x_0 -->
     <g transform="translate(227.519375 335.684)scale(0.1 -0.1)">
      <defs>
       <path id="DejaVuSans-78" d="M 3513 3500 
L 2247 1797 
L 3578 0 
L 2900 0 
L 1881 1375 
L 863 0 
L 184 0 
L 1544 1831 
L 300 3500 
L 978 3500 
L 1906 2253 
L 2834 3500 
L 3513 3500 
z
" transform="scale(0.015625)"/>
       <path id="DejaVuSans-5f" d="M 3263 -1063 
L 3263 -1509 
L -63 -1509 
L -63 -1063 
L 3263 -1063 
z
" transform="scale(0.015625)"/>
      </defs>
      <use xlink:href="#DejaVuSans-78"/>
      <use xlink:href="#DejaVuSans-5f" x="59.179688"/>
      <use xlink:href="#DejaVuSans-30" x="109.179688"/>
     </g>
    </g>
   </g>
   <g id="matplotlib.axis_2">
    <g id="ytick_1">
     <g id="line2d_6">
      <defs>
       <path id="mc31dd5308a" d="M 0 0 
L -3.5 0 
" style="stroke: #000000; stroke-width: 0.8"/>
      </defs>
      <g>
       <use xlink:href="#mc31dd5308a" x="57.6" y="295.488" style="stroke: #000000; stroke-width: 0.8"/>
      </g>
     </g>
     <g id="text_7">
      <!-- −1.00 -->
      <g transform="translate(19.954687 299.287219)scale(0.1 -0.1)">
       <defs>
        <path id="DejaVuSans-2212" d="M 678 2272 
L 4684 2272 
L 4684 1741 
L 678 1741 
L 678 2272 
z
" transform="scale(0.015625)"/>
       </defs>
       <use xlink:href="#DejaVuSans-2212"/>
       <use xlink:href="#DejaVuSans-31" x="83.789062"/>
       <use xlink:href="#DejaVuSans-2e" x="147.412109"/>
       <use xlink:href="#DejaVuSans-30" x="179.199219"/>
       <use xlink:href="#DejaVuSans-30" x="242.822266"/>
      </g>
     </g>
    </g>
    <g id="ytick_2">
     <g id="line2d_7">
      <g>
       <use xlink:href="#mc31dd5308a" x="57.6" y="265.248" style="stroke: #000000; stroke-width: 0.8"/>
      </g>
     </g>
     <g id="text_8">
      <!-- −0.75 -->
      <g transform="translate(19.954687 269.047219)scale(0.1 -0.1)">
       <use xlink:href="#DejaVuSans-2212"/>
       <use xlink:href="#DejaVuSans-30" x="83.789062"/>
       <use xlink:href="#DejaVuSans-2e" x="147.412109"/>
       <use xlink:href="#DejaVuSans-37" x="179.199219"/>
       <use xlink:href="#DejaVuSans-35" x="242.822266"/>
      </g>
     </g>
    </g>
    <g id="ytick_3">
     <g id="line2d_8">
      <g>
       <use xlink:href="#mc31dd5308a" x="57.6" y="235.008" style="stroke: #000000; stroke-width: 0.8"/>
      </g>
     </g>
     <g id="text_9">
      <!-- −0.50 -->
      <g transform="translate(19.954687 238.807219)scale(0.1 -0.1)">
       <use xlink:href="#DejaVuSans-2212"/>
       <use xlink:href="#DejaVuSans-30" x="83.789062"/>
       <use xlink:href="#DejaVuSans-2e" x="147.412109"/>
       <use xlink:href="#DejaVuSans-35" x="179.199219"/>
       <use xlink:href="#DejaVuSans-30" x="242.822266"/>
      </g>
     </g>
    </g>
    <g id="ytick_4">
     <g id="line2d_9">
      <g>
       <use xlink:href="#mc31dd5308a" x="57.6" y="204.768" style="stroke: #000000; stroke-width: 0.8"/>
      </g>
     </g>
     <g id="text_10">
      <!-- −0.25 -->
      <g transform="translate(19.954687 208.567219)scale(0.1 -0.1)">
       <use xlink:href="#DejaVuSans-2212"/>
       <use xlink:href="#DejaVuSans-30" x="83.789062"/>
       <use xlink:href="#DejaVuSans-2e" x="147.412109"/>
       <use xlink:href="#DejaVuSans-32" x="179.199219"/>
       <use xlink:href="#DejaVuSans-35" x="242.822266"/>
      </g>
     </g>
    </g>
    <g id="ytick_5">
     <g id="line2d_10">
      <g>
       <use xlink:href="#mc31dd5308a" x="57.6" y="174.528" style="stroke: #000000; stroke-width: 0.8"/>
      </g>
     </g>
     <g id="text_11">
      <!-- 0.00 -->
      <g transform="translate(28.334375 178.327219)scale(0.1 -0.1)">
       <use xlink:href="#DejaVuSans-30"/>
       <use xlink:href="#DejaVuSans-2e" x="63.623047"/>
       <use xlink:href="#DejaVuSans-30" x="95.410156"/>
       <use xlink:href="#DejaVuSans-30" x="159.033203"/>
      </g>
     </g>
    </g>
    <g id="ytick_6">
     <g id="line2d_11">
      <g>
       <use xlink:href="#mc31dd5308a" x="57.6" y="144.288" style="stroke: #000000; stroke-width: 0.8"/>
      </g>
     </g>
     <g id="text_12">
      <!-- 0.25 -->
      <g transform="translate(28.334375 148.087219)scale(0.1 -0.1)">
       <use xlink:href="#DejaVuSans-30"/>
       <use xlink:href="#DejaVuSans-2e" x="63.623047"/>
       <use xlink:href="#DejaVuSans-32" x="95.410156"/>
       <use xlink:href="#DejaVuSans-35" x="159.033203"/>
      </g>
     </g>
    </g>
    <g id="ytick_7">
     <g id="line2d_12">
      <g>
       <use xlink:href="#mc31dd5308a" x="57.6" y="114.048" style="stroke: #000000; stroke-width: 0.8"/>
      </g>
     </g>
     <g id="text_13">
      <!-- 0.50 -->
      <g transform="translate(28.334375 117.847219)scale(0.1 -0.1)">
       <use xlink:href="#DejaVuSans-30"/>
       <use xlink:href="#DejaVuSans-2e" x="63.623047"/>
       <use xlink:href="#DejaVuSans-35" x="95.410156"/>
       <use xlink:href="#DejaVuSans-30" x="159.033203"/>
      </g>
     </g>
    </g>
    <g id="ytick_8">
     <g id="line2d_13">
      <g>
       <use xlink:href="#mc31dd5308a" x="57.6" y="83.808" style="stroke: #000000; stroke-width: 0.8"/>
      </g>
     </g>
     <g id="text_14">
      <!-- 0.75 -->
      <g transform="translate(28.334375 87.607219)scale(0.1 -0.1)">
       <use xlink:href="#DejaVuSans-30"/>
       <use xlink:href="#DejaVuSans-2e" x="63.623047"/>
       <use xlink:href="#DejaVuSans-37" x="95.410156"/>
       <use xlink:href="#DejaVuSans-35" x="159.033203"/>
      </g>
     </g>
    </g>
    <g id="ytick_9">
     <g id="line2d_14">
      <g>
       <use xlink:href="#mc31dd5308a" x="57.6" y="53.568" style="stroke: #000000; stroke-width: 0.8"/>
      </g>
     </g>
     <g id="text_15">
      <!-- 1.00 -->
      <g transform="translate(28.334375 57.367219)scale(0.1 -0.1)">
       <use xlink:href="#DejaVuSans-31"/>
       <use xlink:href="#DejaVuSans-2e" x="63.623047"/>
       <use xlink:href="#DejaVuSans-30" x="95.410156"/>
       <use xlink:href="#DejaVuSans-30" x="159.033203"/>
      </g>
     </g>
    </g>
   </g>
   <g id="line2d_15">
    <path d="M 73.832727 174.528 
L 76.450909 168.401477 
M 76.450909 168.401477 
L 79.069091 162.29068 
M 79.069091 162.29068 
L 81.687273 156.211296 
M 81.687273 156.211296 
L 84.305455 150.178931 
M 84.305455 150.178931 
L 86.923636 144.20907 
M 86.923636 144.20907 
L 89.541818 138.317037 
M 89.541818 138.317037 
L 92.16 132.517957 
M 92.16 132.517957 
L 94.778182 126.826716 
M 94.778182 126.826716 
L 97.396364 121.257923 
M 97.396364 121.257923 
L 100.014545 115.825875 
M 100.014545 115.825875 
L 102.632727 110.544513 
M 102.632727 110.544513 
L 105.250909 105.427397 
M 105.250909 105.427397 
L 107.869091 100.48766 
M 107.869091 100.48766 
L 110.487273 95.737984 
M 110.487273 95.737984 
L 113.105455 91.190561 
M 113.105455 91.190561 
L 115.723636 86.857064 
M 115.723636 86.857064 
L 118.341818 82.748617 
M 118.341818 82.748617 
L 120.96 78.875767 
M 120.96 78.875767 
L 123.578182 75.248454 
M 123.578182 75.248454 
L 126.196364 71.875991 
M 126.196364 71.875991 
L 128.814545 68.767033 
M 128.814545 68.767033 
L 131.432727 65.929563 
M 131.432727 65.929563 
L 134.050909 63.370863 
M 134.050909 63.370863 
L 136.669091 61.097502 
M 136.669091 61.097502 
L 139.287273 59.115316 
M 139.287273 59.115316 
L 141.905455 57.429392 
M 141.905455 57.429392 
L 144.523636 56.044058 
M 144.523636 56.044058 
L 147.141818 54.962871 
M 147.141818 54.962871 
L 149.76 54.188607 
M 149.76 54.188607 
L 152.378182 53.723251 
M 152.378182 53.723251 
L 154.996364 53.568 
M 154.996364 53.568 
L 157.614545 53.723251 
M 157.614545 53.723251 
L 160.232727 54.188607 
M 160.232727 54.188607 
L 162.850909 54.962871 
M 162.850909 54.962871 
L 165.469091 56.044058 
M 165.469091 56.044058 
L 168.087273 57.429392 
M 168.087273 57.429392 
L 170.705455 59.115316 
M 170.705455 59.115316 
L 173.323636 61.097502 
M 173.323636 61.097502 
L 175.941818 63.370863 
M 175.941818 63.370863 
L 178.56 65.929563 
M 178.56 65.929563 
L 181.178182 68.767033 
M 181.178182 68.767033 
L 183.796364 71.875991 
M 183.796364 71.875991 
L 186.414545 75.248454 
M 186.414545 75.248454 
L 189.032727 78.875767 
M 189.032727 78.875767 
L 191.650909 82.748617 
M 191.650909 82.748617 
L 194.269091 86.857064 
M 194.269091 86.857064 
L 196.887273 91.190561 
M 196.887273 91.190561 
L 199.505455 95.737984 
M 199.505455 95.737984 
L 202.123636 100.48766 
M 202.123636 100.48766 
L 204.741818 105.427397 
M 204.741818 105.427397 
L 207.36 110.544513 
M 207.36 110.544513 
L 209.978182 115.825875 
M 209.978182 115.825875 
L 212.596364 121.257923 
M 212.596364 121.257923 
L 215.214545 126.826716 
M 215.214545 126.826716 
L 217.832727 132.517957 
M 217.832727 132.517957 
L 220.450909 138.317037 
M 220.450909 138.317037 
L 223.069091 144.20907 
M 223.069091 144.20907 
L 225.687273 150.178931 
M 225.687273 150.178931 
L 228.305455 156.211296 
M 228.305455 156.211296 
L 230.923636 162.29068 
M 230.923636 162.29068 
L 233.541818 168.401477 
M 233.541818 168.401477 
L 236.16 174.528 
M 236.16 174.528 
L 238.778182 180.654523 
M 238.778182 180.654523 
L 241.396364 186.76532 
M 241.396364 186.76532 
L 244.014545 192.844704 
M 244.014545 192.844704 
L 246.632727 198.877069 
M 246.632727 198.877069 
L 249.250909 204.84693 
M 249.250909 204.84693 
L 251.869091 210.738963 
M 251.869091 210.738963 
L 254.487273 216.538043 
M 254.487273 216.538043 
L 257.105455 222.229284 
M 257.105455 222.229284 
L 259.723636 227.798077 
M 259.723636 227.798077 
L 262.341818 233.230125 
M 262.341818 233.230125 
L 264.96 238.511487 
M 264.96 238.511487 
L 267.578182 243.628603 
M 267.578182 243.628603 
L 270.196364 248.56834 
M 270.196364 248.56834 
L 272.814545 253.318016 
M 272.814545 253.318016 
L 275.432727 257.865439 
M 275.432727 257.865439 
L 278.050909 262.198936 
M 278.050909 262.198936 
L 280.669091 266.307383 
M 280.669091 266.307383 
L 283.287273 270.180233 
M 283.287273 270.180233 
L 285.905455 273.807546 
M 285.905455 273.807546 
L 288.523636 277.180009 
M 288.523636 277.180009 
L 291.141818 280.288967 
M 291.141818 280.288967 
L 293.76 283.126437 
M 293.76 283.126437 
L 296.378182 285.685137 
M 296.378182 285.685137 
L 298.996364 287.958498 
M 298.996364 287.958498 
L 301.614545 289.940684 
M 301.614545 289.940684 
L 304.232727 291.626608 
M 304.232727 291.626608 
L 306.850909 293.011942 
M 306.850909 293.011942 
L 309.469091 294.093129 
M 309.469091 294.093129 
L 312.087273 294.867393 
M 312.087273 294.867393 
L 314.705455 295.332749 
M 314.705455 295.332749 
L 317.323636 295.488 
M 317.323636 295.488 
L 319.941818 295.332749 
M 319.941818 295.332749 
L 322.56 294.867393 
M 322.56 294.867393 
L 325.178182 294.093129 
M 325.178182 294.093129 
L 327.796364 293.011942 
M 327.796364 293.011942 
L 330.414545 291.626608 
M 330.414545 291.626608 
L 333.032727 289.940684 
M 333.032727 289.940684 
L 335.650909 287.958498 
M 335.650909 287.958498 
L 338.269091 285.685137 
M 338.269091 285.685137 
L 340.887273 283.126437 
M 340.887273 283.126437 
L 343.505455 280.288967 
M 343.505455 280.288967 
L 346.123636 277.180009 
M 346.123636 277.180009 
L 348.741818 273.807546 
M 348.741818 273.807546 
L 351.36 270.180233 
M 351.36 270.180233 
L 353.978182 266.307383 
M 353.978182 266.307383 
L 356.596364 262.198936 
M 356.596364 262.198936 
L 359.214545 257.865439 
M 359.214545 257.865439 
L 361.832727 253.318016 
M 361.832727 253.318016 
L 364.450909 248.56834 
M 364.450909 248.56834 
L 367.069091 243.628603 
M 367.069091 243.628603 
L 369.687273 238.511487 
M 369.687273 238.511487 
L 372.305455 233.230125 
M 372.305455 233.230125 
L 374.923636 227.798077 
M 374.923636 227.798077 
L 377.541818 222.229284 
M 377.541818 222.229284 
L 380.16 216.538043 
M 380.16 216.538043 
L 382.778182 210.738963 
M 382.778182 210.738963 
L 385.396364 204.84693 
M 385.396364 204.84693 
L 388.014545 198.877069 
M 388.014545 198.877069 
L 390.632727 192.844704 
M 390.632727 192.844704 
L 393.250909 186.76532 
M 393.250909 186.76532 
L 395.869091 180.654523 
M 395.869091 180.654523 
L 398.487273 174.528 
L 398.487273 174.528 
" clip-path="url(#pf505eaf84c)" style="fill: none; stroke: #1f77b4; stroke-width: 1.5; stroke-linecap: square"/>
   </g>
   <g id="patch_3">
    <path d="M 57.6 307.584 
L 57.6 41.472 
" style="fill: none; stroke: #000000; stroke-width: 0.8; stroke-linejoin: miter; stroke-linecap: square"/>
   </g>
   <g id="patch_4">
    <path d="M 414.72 307.584 
L 414.72 41.472 
" style="fill: none; stroke: #000000; stroke-width: 0.8; stroke-linejoin: miter; stroke-linecap: square"/>
   </g>
   <g id="patch_5">
    <path d="M 57.6 307.584 
L 414.72 307.584 
" style="fill: none; stroke: #000000; stroke-width: 0.8; stroke-linejoin: miter; stroke-linecap: square"/>
   </g>
   <g id="patch_6">
    <path d="M 57.6 41.472 
L 414.72 41.472 
" style="fill: none; stroke: #000000; stroke-width: 0.8; stroke-linejoin: miter; stroke-linecap: square"/>
   </g>
  </g>
 </g>
 <defs>
  <clipPath id="pf505eaf84c">
   <rect x="57.6" y="41.472" width="357.12" height="266.112"/>
  </clipPath>
 </defs>
</svg>
