Point(1) = {0,0,0};
Point(2) = {1,0,0};
Point(3) = {1,1,0};
Point(4) = {0,1,0};
Point(5) = {0,0,1};
Point(6) = {1,0,1};
Point(7) = {1,1,1};
Point(8) = {0,1,1};
Line(9) = {1,2};
Line(10) = {2,3};
Line(11) = {3,4};
Line(12) = {4,1};
Line(13) = {5,6};
Line(14) = {6,7};
Line(15) = {7,8};
Line(16) = {8,5};
Line(17) = {1,5};
Line(18) = {2,6};
Line(19) = {3,7};
Line(20) = {4,8};
Line Loop(21) = {9, 18, -13, -17};
Line Loop(22) = {10, 19, -14, -18};
Line Loop(23) = {11, 12, 9, 10};
Line Loop(24) = {17, -16, -20, 12};
Line Loop(25) = {15, 16, 13, 14};
Line Loop(26) = {20, -15, -19, 11};
Plane Surface(27) = {21};
Plane Surface(28) = {22};
Plane Surface(29) = {23};
Plane Surface(30) = {24};
Plane Surface(31) = {25};
Plane Surface(32) = {26};
Surface Loop(33) = {32, 30, 27, 29, 28, 31};
Volume(34) = {33};
Physical Point("corner") = {2};
Physical Surface("neumann") = {32};
Physical Surface("dirichlet") = {27,28,29};
Physical Volume("interior") = {34};
