<?xml version="1.0" encoding="utf-8" standalone="no"?>
<!DOCTYPE svg PUBLIC "-//W3C//DTD SVG 1.1//EN"
  "http://www.w3.org/Graphics/SVG/1.1/DTD/svg11.dtd">
<svg xmlns:xlink="http://www.w3.org/1999/xlink" width="460.8pt" height="345.6pt" viewBox="0 0 460.8 345.6" xmlns="http://www.w3.org/2000/svg" version="1.1">
 <metadata>
  <rdf:RDF xmlns:dc="http://purl.org/dc/elements/1.1/" xmlns:cc="http://creativecommons.org/ns#" xmlns:rdf="http://www.w3.org/1999/02/22-rdf-syntax-ns#">
   <cc:Work>
    <dc:type rdf:resource="http://purl.org/dc/dcmitype/StillImage"/>
    <dc:format>image/svg+xml</dc:format>
    <dc:creator>
     <cc:Agent>
      <dc:title>Matplotlib v3.5.1, https://matplotlib.org/</dc:title>
     </cc:Agent>
    </dc:creator>
   </cc:Work>
  </rdf:RDF>
 </metadata>
 <defs>
  <style type="text/css">*{stroke-linejoin: round; stroke-linecap: butt}</style>
 </defs>
 <g id="figure_1">
  <g id="patch_1">
   <path d="M 0 345.6 
L 460.8 345.6 
L 460.8 0 
L 0 0 
z
" style="fill: #ffffff"/>
  </g>
  <g id="axes_1">
   <g id="patch_2">
    <path d="M 57.6 307.584 
L 414.72 307.584 
L 414.72 41.472 
L 57.6 41.472 
z
" style="fill: #ffffff"/>
   </g>
   <g id="matplotlib.axis_1">
    <g id="xtick_1">
     <g id="line2d_1">
      <defs>
       <path id="me54a3d5563" d="M 0 0 
L 0 3.5 
" style="stroke: #000000; stroke-width: 0.8"/>
      </defs>
      <g>
       <use xlink:href="#me54a3d5563" x="73.832727" y="307.584" style="stroke: #000000; stroke-width: 0.8"/>
      </g>
     </g>
     <g id="text_1">
      <!-- 0.00 -->
      <g transform="translate(62.699915 322.182437)scale(0.1 -0.1)">
       <defs>
        <path id="DejaVuSans-30" d="M 2034 4250 
Q 1547 4250 1301 3770 
Q 1056 3291 1056 2328 
Q 1056 1369 1301 889 
Q 1547 409 2034 409 
Q 2525 409 2770 889 
Q 3016 1369 3016 2328 
Q 3016 3291 2770 3770 
Q 2525 4250 2034 4250 
z
M 2034 4750 
Q 2819 4750 3233 4129 
Q 3647 3509 3647 2328 
Q 3647 1150 3233 529 
Q 2819 -91 2034 -91 
Q 1250 -91 836 529 
Q 422 1150 422 2328 
Q 422 3509 836 4129 
Q 1250 4750 2034 4750 
z
" transform="scale(0.015625)"/>
        <path id="DejaVuSans-2e" d="M 684 794 
L 1344 794 
L 1344 0 
L 684 0 
L 684 794 
z
" transform="scale(0.015625)"/>
       </defs>
       <use xlink:href="#DejaVuSans-30"/>
       <use xlink:href="#DejaVuSans-2e" x="63.623047"/>
       <use xlink:href="#DejaVuSans-30" x="95.410156"/>
       <use xlink:href="#DejaVuSans-30" x="159.033203"/>
      </g>
     </g>
    </g>
    <g id="xtick_2">
     <g id="line2d_2">
      <g>
       <use xlink:href="#me54a3d5563" x="154.996364" y="307.584" style="stroke: #000000; stroke-width: 0.8"/>
      </g>
     </g>
     <g id="text_2">
      <!-- 0.25 -->
      <g transform="translate(143.863551 322.182437)scale(0.1 -0.1)">
       <defs>
        <path id="DejaVuSans-32" d="M 1228 531 
L 3431 531 
L 3431 0 
L 469 0 
L 469 531 
Q 828 903 1448 1529 
Q 2069 2156 2228 2338 
Q 2531 2678 2651 2914 
Q 2772 3150 2772 3378 
Q 2772 3750 2511 3984 
Q 2250 4219 1831 4219 
Q 1534 4219 1204 4116 
Q 875 4013 500 3803 
L 500 4441 
Q 881 4594 1212 4672 
Q 1544 4750 1819 4750 
Q 2544 4750 2975 4387 
Q 3406 4025 3406 3419 
Q 3406 3131 3298 2873 
Q 3191 2616 2906 2266 
Q 2828 2175 2409 1742 
Q 1991 1309 1228 531 
z
" transform="scale(0.015625)"/>
        <path id="DejaVuSans-35" d="M 691 4666 
L 3169 4666 
L 3169 4134 
L 1269 4134 
L 1269 2991 
Q 1406 3038 1543 3061 
Q 1681 3084 1819 3084 
Q 2600 3084 3056 2656 
Q 3513 2228 3513 1497 
Q 3513 744 3044 326 
Q 2575 -91 1722 -91 
Q 1428 -91 1123 -41 
Q 819 9 494 109 
L 494 744 
Q 775 591 1075 516 
Q 1375 441 1709 441 
Q 2250 441 2565 725 
Q 2881 1009 2881 1497 
Q 2881 1984 2565 2268 
Q 2250 2553 1709 2553 
Q 1456 2553 1204 2497 
Q 953 2441 691 2322 
L 691 4666 
z
" transform="scale(0.015625)"/>
       </defs>
       <use xlink:href="#DejaVuSans-30"/>
       <use xlink:href="#DejaVuSans-2e" x="63.623047"/>
       <use xlink:href="#DejaVuSans-32" x="95.410156"/>
       <use xlink:href="#DejaVuSans-35" x="159.033203"/>
      </g>
     </g>
    </g>
    <g id="xtick_3">
     <g id="line2d_3">
      <g>
       <use xlink:href="#me54a3d5563" x="236.16" y="307.584" style="stroke: #000000; stroke-width: 0.8"/>
      </g>
     </g>
     <g id="text_3">
      <!-- 0.50 -->
      <g transform="translate(225.027187 322.182437)scale(0.1 -0.1)">
       <use xlink:href="#DejaVuSans-30"/>
       <use xlink:href="#DejaVuSans-2e" x="63.623047"/>
       <use xlink:href="#DejaVuSans-35" x="95.410156"/>
       <use xlink:href="#DejaVuSans-30" x="159.033203"/>
      </g>
     </g>
    </g>
    <g id="xtick_4">
     <g id="line2d_4">
      <g>
       <use xlink:href="#me54a3d5563" x="317.323636" y="307.584" style="stroke: #000000; stroke-width: 0.8"/>
      </g>
     </g>
     <g id="text_4">
      <!-- 0.75 -->
      <g transform="translate(306.190824 322.182437)scale(0.1 -0.1)">
       <defs>
        <path id="DejaVuSans-37" d="M 525 4666 
L 3525 4666 
L 3525 4397 
L 1831 0 
L 1172 0 
L 2766 4134 
L 525 4134 
L 525 4666 
z
" transform="scale(0.015625)"/>
       </defs>
       <use xlink:href="#DejaVuSans-30"/>
       <use xlink:href="#DejaVuSans-2e" x="63.623047"/>
       <use xlink:href="#DejaVuSans-37" x="95.410156"/>
       <use xlink:href="#DejaVuSans-35" x="159.033203"/>
      </g>
     </g>
    </g>
    <g id="xtick_5">
     <g id="line2d_5">
      <g>
       <use xlink:href="#me54a3d5563" x="398.487273" y="307.584" style="stroke: #000000; stroke-width: 0.8"/>
      </g>
     </g>
     <g id="text_5">
      <!-- 1.00 -->
      <g transform="translate(387.35446 322.182437)scale(0.1 -0.1)">
       <defs>
        <path id="DejaVuSans-31" d="M 794 531 
L 1825 531 
L 1825 4091 
L 703 3866 
L 703 4441 
L 1819 4666 
L 2450 4666 
L 2450 531 
L 3481 531 
L 3481 0 
L 794 0 
L 794 531 
z
" transform="scale(0.015625)"/>
       </defs>
       <use xlink:href="#DejaVuSans-31"/>
       <use xlink:href="#DejaVuSans-2e" x="63.623047"/>
       <use xlink:href="#DejaVuSans-30" x="95.410156"/>
       <use xlink:href="#DejaVuSans-30" x="159.033203"/>
      </g>
     </g>
    </g>
    <g id="text_6">
     <!-- x_0 -->
     <g transform="translate(227.519375 335.684)scale(0.1 -0.1)">
      <defs>
       <path id="DejaVuSans-78" d="M 3513 3500 
L 2247 1797 
L 3578 0 
L 2900 0 
L 1881 1375 
L 863 0 
L 184 0 
L 1544 1831 
L 300 3500 
L 978 3500 
L 1906 2253 
L 2834 3500 
L 3513 3500 
z
" transform="scale(0.015625)"/>
       <path id="DejaVuSans-5f" d="M 3263 -1063 
L 3263 -1509 
L -63 -1509 
L -63 -1063 
L 3263 -1063 
z
" transform="scale(0.015625)"/>
      </defs>
      <use xlink:href="#DejaVuSans-78"/>
      <use xlink:href="#DejaVuSans-5f" x="59.179688"/>
      <use xlink:href="#DejaVuSans-30" x="109.179688"/>
     </g>
    </g>
   </g>
   <g id="matplotlib.axis_2">
    <g id="ytick_1">
     <g id="line2d_6">
      <defs>
       <path id="mc31dd5308a" d="M 0 0 
L -3.5 0 
" style="stroke: #000000; stroke-width: 0.8"/>
      </defs>
      <g>
       <use xlink:href="#mc31dd5308a" x="57.6" y="295.488" style="stroke: #000000; stroke-width: 0.8"/>
      </g>
     </g>
     <g id="text_7">
      <!-- 0 -->
      <g transform="translate(44.2375 299.287219)scale(0.1 -0.1)">
       <use xlink:href="#DejaVuSans-30"/>
      </g>
     </g>
    </g>
    <g id="ytick_2">
     <g id="line2d_7">
      <g>
       <use xlink:href="#mc31dd5308a" x="57.6" y="247.104" style="stroke: #000000; stroke-width: 0.8"/>
      </g>
     </g>
     <g id="text_8">
      <!-- 1 -->
      <g transform="translate(44.2375 250.903219)scale(0.1 -0.1)">
       <use xlink:href="#DejaVuSans-31"/>
      </g>
     </g>
    </g>
    <g id="ytick_3">
     <g id="line2d_8">
      <g>
       <use xlink:href="#mc31dd5308a" x="57.6" y="198.72" style="stroke: #000000; stroke-width: 0.8"/>
      </g>
     </g>
     <g id="text_9">
      <!-- 2 -->
      <g transform="translate(44.2375 202.519219)scale(0.1 -0.1)">
       <use xlink:href="#DejaVuSans-32"/>
      </g>
     </g>
    </g>
    <g id="ytick_4">
     <g id="line2d_9">
      <g>
       <use xlink:href="#mc31dd5308a" x="57.6" y="150.336" style="stroke: #000000; stroke-width: 0.8"/>
      </g>
     </g>
     <g id="text_10">
      <!-- 3 -->
      <g transform="translate(44.2375 154.135219)scale(0.1 -0.1)">
       <defs>
        <path id="DejaVuSans-33" d="M 2597 2516 
Q 3050 2419 3304 2112 
Q 3559 1806 3559 1356 
Q 3559 666 3084 287 
Q 2609 -91 1734 -91 
Q 1441 -91 1130 -33 
Q 819 25 488 141 
L 488 750 
Q 750 597 1062 519 
Q 1375 441 1716 441 
Q 2309 441 2620 675 
Q 2931 909 2931 1356 
Q 2931 1769 2642 2001 
Q 2353 2234 1838 2234 
L 1294 2234 
L 1294 2753 
L 1863 2753 
Q 2328 2753 2575 2939 
Q 2822 3125 2822 3475 
Q 2822 3834 2567 4026 
Q 2313 4219 1838 4219 
Q 1578 4219 1281 4162 
Q 984 4106 628 3988 
L 628 4550 
Q 988 4650 1302 4700 
Q 1616 4750 1894 4750 
Q 2613 4750 3031 4423 
Q 3450 4097 3450 3541 
Q 3450 3153 3228 2886 
Q 3006 2619 2597 2516 
z
" transform="scale(0.015625)"/>
       </defs>
       <use xlink:href="#DejaVuSans-33"/>
      </g>
     </g>
    </g>
    <g id="ytick_5">
     <g id="line2d_10">
      <g>
       <use xlink:href="#mc31dd5308a" x="57.6" y="101.952" style="stroke: #000000; stroke-width: 0.8"/>
      </g>
     </g>
     <g id="text_11">
      <!-- 4 -->
      <g transform="translate(44.2375 105.751219)scale(0.1 -0.1)">
       <defs>
        <path id="DejaVuSans-34" d="M 2419 4116 
L 825 1625 
L 2419 1625 
L 2419 4116 
z
M 2253 4666 
L 3047 4666 
L 3047 1625 
L 3713 1625 
L 3713 1100 
L 3047 1100 
L 3047 0 
L 2419 0 
L 2419 1100 
L 313 1100 
L 313 1709 
L 2253 4666 
z
" transform="scale(0.015625)"/>
       </defs>
       <use xlink:href="#DejaVuSans-34"/>
      </g>
     </g>
    </g>
    <g id="ytick_6">
     <g id="line2d_11">
      <g>
       <use xlink:href="#mc31dd5308a" x="57.6" y="53.568" style="stroke: #000000; stroke-width: 0.8"/>
      </g>
     </g>
     <g id="text_12">
      <!-- 5 -->
      <g transform="translate(44.2375 57.367219)scale(0.1 -0.1)">
       <use xlink:href="#DejaVuSans-35"/>
      </g>
     </g>
    </g>
   </g>
   <g id="line2d_12">
    <path d="M 73.832727 247.104 
L 76.450909 245.543226 
M 76.450909 245.543226 
L 79.069091 243.982452 
M 79.069091 243.982452 
L 81.687273 242.421677 
M 81.687273 242.421677 
L 84.305455 240.860903 
M 84.305455 240.860903 
L 86.923636 239.300129 
M 86.923636 239.300129 
L 89.541818 237.739355 
M 89.541818 237.739355 
L 92.16 236.178581 
M 92.16 236.178581 
L 94.778182 234.617806 
M 94.778182 234.617806 
L 97.396364 233.057032 
M 97.396364 233.057032 
L 100.014545 231.496258 
M 100.014545 231.496258 
L 102.632727 229.935484 
M 102.632727 229.935484 
L 105.250909 228.37471 
M 105.250909 228.37471 
L 107.869091 226.813935 
M 107.869091 226.813935 
L 110.487273 225.253161 
M 110.487273 225.253161 
L 113.105455 223.692387 
M 113.105455 223.692387 
L 115.723636 222.131613 
M 115.723636 222.131613 
L 118.341818 220.570839 
M 118.341818 220.570839 
L 120.96 219.010065 
M 120.96 219.010065 
L 123.578182 217.44929 
M 123.578182 217.44929 
L 126.196364 215.888516 
M 126.196364 215.888516 
L 128.814545 214.327742 
M 128.814545 214.327742 
L 131.432727 212.766968 
M 131.432727 212.766968 
L 134.050909 211.206194 
M 134.050909 211.206194 
L 136.669091 209.645419 
M 136.669091 209.645419 
L 139.287273 208.084645 
M 139.287273 208.084645 
L 141.905455 206.523871 
M 141.905455 206.523871 
L 144.523636 204.963097 
M 144.523636 204.963097 
L 147.141818 203.402323 
M 147.141818 203.402323 
L 149.76 201.841548 
M 149.76 201.841548 
L 152.378182 200.280774 
M 152.378182 200.280774 
L 154.996364 198.72 
M 154.996364 198.72 
L 157.614545 201.841548 
M 157.614545 201.841548 
L 160.232727 204.963097 
M 160.232727 204.963097 
L 162.850909 208.084645 
M 162.850909 208.084645 
L 165.469091 211.206194 
M 165.469091 211.206194 
L 168.087273 214.327742 
M 168.087273 214.327742 
L 170.705455 217.44929 
M 170.705455 217.44929 
L 173.323636 220.570839 
M 173.323636 220.570839 
L 175.941818 223.692387 
M 175.941818 223.692387 
L 178.56 226.813935 
M 178.56 226.813935 
L 181.178182 229.935484 
M 181.178182 229.935484 
L 183.796364 233.057032 
M 183.796364 233.057032 
L 186.414545 236.178581 
M 186.414545 236.178581 
L 189.032727 239.300129 
M 189.032727 239.300129 
L 191.650909 242.421677 
M 191.650909 242.421677 
L 194.269091 245.543226 
M 194.269091 245.543226 
L 196.887273 248.664774 
M 196.887273 248.664774 
L 199.505455 251.786323 
M 199.505455 251.786323 
L 202.123636 254.907871 
M 202.123636 254.907871 
L 204.741818 258.029419 
M 204.741818 258.029419 
L 207.36 261.150968 
M 207.36 261.150968 
L 209.978182 264.272516 
M 209.978182 264.272516 
L 212.596364 267.394065 
M 212.596364 267.394065 
L 215.214545 270.515613 
M 215.214545 270.515613 
L 217.832727 273.637161 
M 217.832727 273.637161 
L 220.450909 276.75871 
M 220.450909 276.75871 
L 223.069091 279.880258 
M 223.069091 279.880258 
L 225.687273 283.001806 
M 225.687273 283.001806 
L 228.305455 286.123355 
M 228.305455 286.123355 
L 230.923636 289.244903 
M 230.923636 289.244903 
L 233.541818 292.366452 
M 233.541818 292.366452 
L 236.16 295.488 
M 236.16 295.488 
L 238.778182 287.684129 
M 238.778182 287.684129 
L 241.396364 279.880258 
M 241.396364 279.880258 
L 244.014545 272.076387 
M 244.014545 272.076387 
L 246.632727 264.272516 
M 246.632727 264.272516 
L 249.250909 256.468645 
M 249.250909 256.468645 
L 251.869091 248.664774 
M 251.869091 248.664774 
L 254.487273 240.860903 
M 254.487273 240.860903 
L 257.105455 233.057032 
M 257.105455 233.057032 
L 259.723636 225.253161 
M 259.723636 225.253161 
L 262.341818 217.44929 
M 262.341818 217.44929 
L 264.96 209.645419 
M 264.96 209.645419 
L 267.578182 201.841548 
M 267.578182 201.841548 
L 270.196364 194.037677 
M 270.196364 194.037677 
L 272.814545 186.233806 
M 272.814545 186.233806 
L 275.432727 178.429935 
M 275.432727 178.429935 
L 278.050909 170.626065 
M 278.050909 170.626065 
L 280.669091 162.822194 
M 280.669091 162.822194 
L 283.287273 155.018323 
M 283.287273 155.018323 
L 285.905455 147.214452 
M 285.905455 147.214452 
L 288.523636 139.410581 
M 288.523636 139.410581 
L 291.141818 131.60671 
M 291.141818 131.60671 
L 293.76 123.802839 
M 293.76 123.802839 
L 296.378182 115.998968 
M 296.378182 115.998968 
L 298.996364 108.195097 
M 298.996364 108.195097 
L 301.614545 100.391226 
M 301.614545 100.391226 
L 304.232727 92.587355 
M 304.232727 92.587355 
L 306.850909 84.783484 
M 306.850909 84.783484 
L 309.469091 76.979613 
M 309.469091 76.979613 
L 312.087273 69.175742 
M 312.087273 69.175742 
L 314.705455 61.371871 
M 314.705455 61.371871 
L 317.323636 53.568 
M 317.323636 53.568 
L 319.941818 55.128774 
M 319.941818 55.128774 
L 322.56 56.689548 
M 322.56 56.689548 
L 325.178182 58.250323 
M 325.178182 58.250323 
L 327.796364 59.811097 
M 327.796364 59.811097 
L 330.414545 61.371871 
M 330.414545 61.371871 
L 333.032727 62.932645 
M 333.032727 62.932645 
L 335.650909 64.493419 
M 335.650909 64.493419 
L 338.269091 66.054194 
M 338.269091 66.054194 
L 340.887273 67.614968 
M 340.887273 67.614968 
L 343.505455 69.175742 
M 343.505455 69.175742 
L 346.123636 70.736516 
M 346.123636 70.736516 
L 348.741818 72.29729 
M 348.741818 72.29729 
L 351.36 73.858065 
M 351.36 73.858065 
L 353.978182 75.418839 
M 353.978182 75.418839 
L 356.596364 76.979613 
M 356.596364 76.979613 
L 359.214545 78.540387 
M 359.214545 78.540387 
L 361.832727 80.101161 
M 361.832727 80.101161 
L 364.450909 81.661935 
M 364.450909 81.661935 
L 367.069091 83.22271 
M 367.069091 83.22271 
L 369.687273 84.783484 
M 369.687273 84.783484 
L 372.305455 86.344258 
M 372.305455 86.344258 
L 374.923636 87.905032 
M 374.923636 87.905032 
L 377.541818 89.465806 
M 377.541818 89.465806 
L 380.16 91.026581 
M 380.16 91.026581 
L 382.778182 92.587355 
M 382.778182 92.587355 
L 385.396364 94.148129 
M 385.396364 94.148129 
L 388.014545 95.708903 
M 388.014545 95.708903 
L 390.632727 97.269677 
M 390.632727 97.269677 
L 393.250909 98.830452 
M 393.250909 98.830452 
L 395.869091 100.391226 
M 395.869091 100.391226 
L 398.487273 101.952 
L 398.487273 101.952 
" clip-path="url(#pf505eaf84c)" style="fill: none; stroke: #1f77b4; stroke-width: 1.5; stroke-linecap: square"/>
   </g>
   <g id="patch_3">
    <path d="M 57.6 307.584 
L 57.6 41.472 
" style="fill: none; stroke: #000000; stroke-width: 0.8; stroke-linejoin: miter; stroke-linecap: square"/>
   </g>
   <g id="patch_4">
    <path d="M 414.72 307.584 
L 414.72 41.472 
" style="fill: none; stroke: #000000; stroke-width: 0.8; stroke-linejoin: miter; stroke-linecap: square"/>
   </g>
   <g id="patch_5">
    <path d="M 57.6 307.584 
L 414.72 307.584 
" style="fill: none; stroke: #000000; stroke-width: 0.8; stroke-linejoin: miter; stroke-linecap: square"/>
   </g>
   <g id="patch_6">
    <path d="M 57.6 41.472 
L 414.72 41.472 
" style="fill: none; stroke: #000000; stroke-width: 0.8; stroke-linejoin: miter; stroke-linecap: square"/>
   </g>
  </g>
 </g>
 <defs>
  <clipPath id="pf505eaf84c">
   <rect x="57.6" y="41.472" width="357.12" height="266.112"/>
  </clipPath>
 </defs>
</svg>
